solid HQ41 Base
   facet normal 9.703054e-001 -2.418828e-001 0.000000e+000
      outer loop
         vertex 1.504028e-001 5.807845e-003 7.500000e-001
         vertex 1.504028e-001 5.807845e-003 0.000000e+000
         vertex 1.504034e-001 5.810565e-003 0.000000e+000
      endloop
   endfacet
   facet normal 9.816481e-001 -1.907014e-001 0.000000e+000
      outer loop
         vertex 1.504028e-001 5.807845e-003 7.500000e-001
         vertex 1.504034e-001 5.810565e-003 0.000000e+000
         vertex 1.504034e-001 5.810565e-003 7.500000e-001
      endloop
   endfacet
   facet normal 9.964118e-001 -8.463754e-002 0.000000e+000
      outer loop
         vertex 1.504034e-001 5.810565e-003 7.500000e-001
         vertex 1.504034e-001 5.810565e-003 0.000000e+000
         vertex 1.504035e-001 5.813070e-003 0.000000e+000
      endloop
   endfacet
   facet normal 9.995584e-001 -2.971653e-002 0.000000e+000
      outer loop
         vertex 1.504034e-001 5.810565e-003 7.500000e-001
         vertex 1.504035e-001 5.813070e-003 0.000000e+000
         vertex 1.504035e-001 5.813070e-003 7.500000e-001
      endloop
   endfacet
   facet normal 9.970202e-001 7.713981e-002 0.000000e+000
      outer loop
         vertex 1.504035e-001 5.813070e-003 7.500000e-001
         vertex 1.504035e-001 5.813070e-003 0.000000e+000
         vertex 1.504033e-001 5.815647e-003 0.000000e+000
      endloop
   endfacet
   facet normal 9.916338e-001 1.290827e-001 0.000000e+000
      outer loop
         vertex 1.504035e-001 5.813070e-003 7.500000e-001
         vertex 1.504033e-001 5.815647e-003 0.000000e+000
         vertex 1.504033e-001 5.815647e-003 7.500000e-001
      endloop
   endfacet
   facet normal 9.734117e-001 2.290625e-001 0.000000e+000
      outer loop
         vertex 1.504033e-001 5.815647e-003 7.500000e-001
         vertex 1.504033e-001 5.815647e-003 0.000000e+000
         vertex 1.504025e-001 5.818440e-003 0.000000e+000
      endloop
   endfacet
   facet normal 9.608278e-001 2.771458e-001 0.000000e+000
      outer loop
         vertex 1.504033e-001 5.815647e-003 7.500000e-001
         vertex 1.504025e-001 5.818440e-003 0.000000e+000
         vertex 1.504025e-001 5.818440e-003 7.500000e-001
      endloop
   endfacet
   facet normal 9.295166e-001 3.687803e-001 0.000000e+000
      outer loop
         vertex 1.504025e-001 5.818440e-003 7.500000e-001
         vertex 1.504025e-001 5.818440e-003 0.000000e+000
         vertex 1.504012e-001 5.821622e-003 0.000000e+000
      endloop
   endfacet
   facet normal 9.110009e-001 4.124043e-001 0.000000e+000
      outer loop
         vertex 1.504025e-001 5.818440e-003 7.500000e-001
         vertex 1.504012e-001 5.821622e-003 0.000000e+000
         vertex 1.504012e-001 5.821622e-003 7.500000e-001
      endloop
   endfacet
   facet normal 8.647450e-001 5.022111e-001 0.000000e+000
      outer loop
         vertex 1.504012e-001 5.821622e-003 7.500000e-001
         vertex 1.504012e-001 5.821622e-003 0.000000e+000
         vertex 1.503982e-001 5.826299e-003 0.000000e+000
      endloop
   endfacet
   facet normal 8.364170e-001 5.480936e-001 0.000000e+000
      outer loop
         vertex 1.504012e-001 5.821622e-003 7.500000e-001
         vertex 1.503982e-001 5.826299e-003 0.000000e+000
         vertex 1.503982e-001 5.826299e-003 7.500000e-001
      endloop
   endfacet
   facet normal 7.734123e-001 6.339033e-001 0.000000e+000
      outer loop
         vertex 1.503982e-001 5.826299e-003 7.500000e-001
         vertex 1.503982e-001 5.826299e-003 0.000000e+000
         vertex 1.503924e-001 5.832917e-003 0.000000e+000
      endloop
   endfacet
   facet normal 7.388257e-001 6.738966e-001 0.000000e+000
      outer loop
         vertex 1.503982e-001 5.826299e-003 7.500000e-001
         vertex 1.503924e-001 5.832917e-003 0.000000e+000
         vertex 1.503924e-001 5.832917e-003 7.500000e-001
      endloop
   endfacet
   facet normal 6.649191e-001 7.469154e-001 0.000000e+000
      outer loop
         vertex 1.503924e-001 5.832917e-003 7.500000e-001
         vertex 1.503924e-001 5.832917e-003 0.000000e+000
         vertex 1.503797e-001 5.843487e-003 0.000000e+000
      endloop
   endfacet
   facet normal 6.257114e-001 7.800547e-001 0.000000e+000
      outer loop
         vertex 1.503924e-001 5.832917e-003 7.500000e-001
         vertex 1.503797e-001 5.843487e-003 0.000000e+000
         vertex 1.503797e-001 5.843487e-003 7.500000e-001
      endloop
   endfacet
   facet normal 5.448023e-001 8.385645e-001 0.000000e+000
      outer loop
         vertex 1.503797e-001 5.843487e-003 7.500000e-001
         vertex 1.503797e-001 5.843487e-003 0.000000e+000
         vertex 1.503461e-001 5.863580e-003 0.000000e+000
      endloop
   endfacet
   facet normal 5.032496e-001 8.641410e-001 0.000000e+000
      outer loop
         vertex 1.503797e-001 5.843487e-003 7.500000e-001
         vertex 1.503461e-001 5.863580e-003 0.000000e+000
         vertex 1.503461e-001 5.863580e-003 7.500000e-001
      endloop
   endfacet
   facet normal 4.437912e-001 8.961302e-001 0.000000e+000
      outer loop
         vertex 1.503461e-001 5.863580e-003 7.500000e-001
         vertex 1.503461e-001 5.863580e-003 0.000000e+000
         vertex 1.503158e-001 5.878119e-003 0.000000e+000
      endloop
   endfacet
   facet normal 4.268171e-001 9.043379e-001 0.000000e+000
      outer loop
         vertex 1.503461e-001 5.863580e-003 7.500000e-001
         vertex 1.503158e-001 5.878119e-003 0.000000e+000
         vertex 1.503158e-001 5.878119e-003 7.500000e-001
      endloop
   endfacet
   facet normal 3.652237e-001 9.309198e-001 0.000000e+000
      outer loop
         vertex 1.503158e-001 5.878119e-003 7.500000e-001
         vertex 1.503158e-001 5.878119e-003 0.000000e+000
         vertex 1.499502e-001 6.000431e-003 0.000000e+000
      endloop
   endfacet
   facet normal 3.197931e-001 9.474874e-001 0.000000e+000
      outer loop
         vertex 1.503158e-001 5.878119e-003 7.500000e-001
         vertex 1.499502e-001 6.000431e-003 0.000000e+000
         vertex 1.499502e-001 6.000431e-003 7.500000e-001
      endloop
   endfacet
   facet normal 2.522218e-001 9.676694e-001 0.000000e+000
      outer loop
         vertex 1.499502e-001 6.000431e-003 7.500000e-001
         vertex 1.499502e-001 6.000431e-003 0.000000e+000
         vertex 1.472747e-001 6.618264e-003 0.000000e+000
      endloop
   endfacet
   facet normal 2.305843e-001 9.730523e-001 0.000000e+000
      outer loop
         vertex 1.499502e-001 6.000431e-003 7.500000e-001
         vertex 1.472747e-001 6.618264e-003 0.000000e+000
         vertex 1.472747e-001 6.618264e-003 7.500000e-001
      endloop
   endfacet
   facet normal 2.087111e-001 9.779773e-001 0.000000e+000
      outer loop
         vertex 1.472747e-001 6.618264e-003 7.500000e-001
         vertex 1.472747e-001 6.618264e-003 0.000000e+000
         vertex 1.448917e-001 7.123477e-003 0.000000e+000
      endloop
   endfacet
   facet normal 2.085790e-001 9.780055e-001 0.000000e+000
      outer loop
         vertex 1.472747e-001 6.618264e-003 7.500000e-001
         vertex 1.448917e-001 7.123477e-003 0.000000e+000
         vertex 1.448917e-001 7.123477e-003 7.500000e-001
      endloop
   endfacet
   facet normal 2.197166e-001 9.755637e-001 0.000000e+000
      outer loop
         vertex 1.448917e-001 7.123477e-003 7.500000e-001
         vertex 1.448917e-001 7.123477e-003 0.000000e+000
         vertex 1.407362e-001 8.071895e-003 0.000000e+000
      endloop
   endfacet
   facet normal 2.309584e-001 9.729636e-001 0.000000e+000
      outer loop
         vertex 1.448917e-001 7.123477e-003 7.500000e-001
         vertex 1.407362e-001 8.071895e-003 0.000000e+000
         vertex 1.407362e-001 8.071895e-003 7.500000e-001
      endloop
   endfacet
   facet normal 2.452893e-001 9.694499e-001 0.000000e+000
      outer loop
         vertex 1.407362e-001 8.071895e-003 7.500000e-001
         vertex 1.407362e-001 8.071895e-003 0.000000e+000
         vertex 1.358759e-001 9.356953e-003 0.000000e+000
      endloop
   endfacet
   facet normal 2.484080e-001 9.686555e-001 0.000000e+000
      outer loop
         vertex 1.407362e-001 8.071895e-003 7.500000e-001
         vertex 1.358759e-001 9.356953e-003 0.000000e+000
         vertex 1.358759e-001 9.356953e-003 7.500000e-001
      endloop
   endfacet
   facet normal 2.417023e-001 9.703505e-001 0.000000e+000
      outer loop
         vertex 1.358759e-001 9.356953e-003 7.500000e-001
         vertex 1.358759e-001 9.356953e-003 0.000000e+000
         vertex 1.318156e-001 1.033169e-002 0.000000e+000
      endloop
   endfacet
   facet normal 2.318547e-001 9.727504e-001 0.000000e+000
      outer loop
         vertex 1.358759e-001 9.356953e-003 7.500000e-001
         vertex 1.318156e-001 1.033169e-002 0.000000e+000
         vertex 1.318156e-001 1.033169e-002 7.500000e-001
      endloop
   endfacet
   facet normal 2.254775e-001 9.742483e-001 0.000000e+000
      outer loop
         vertex 1.318156e-001 1.033169e-002 7.500000e-001
         vertex 1.318156e-001 1.033169e-002 0.000000e+000
         vertex 1.215391e-001 1.274151e-002 0.000000e+000
      endloop
   endfacet
   facet normal 2.289679e-001 9.734340e-001 0.000000e+000
      outer loop
         vertex 1.318156e-001 1.033169e-002 7.500000e-001
         vertex 1.215391e-001 1.274151e-002 0.000000e+000
         vertex 1.215391e-001 1.274151e-002 7.500000e-001
      endloop
   endfacet
   facet normal 2.245920e-001 9.744529e-001 0.000000e+000
      outer loop
         vertex 1.215391e-001 1.274151e-002 7.500000e-001
         vertex 1.215391e-001 1.274151e-002 0.000000e+000
         vertex 1.141538e-001 1.441072e-002 0.000000e+000
      endloop
   endfacet
   facet normal 2.167135e-001 9.762353e-001 0.000000e+000
      outer loop
         vertex 1.215391e-001 1.274151e-002 7.500000e-001
         vertex 1.141538e-001 1.441072e-002 0.000000e+000
         vertex 1.141538e-001 1.441072e-002 7.500000e-001
      endloop
   endfacet
   facet normal 2.048389e-001 9.787957e-001 0.000000e+000
      outer loop
         vertex 1.141538e-001 1.441072e-002 7.500000e-001
         vertex 1.141538e-001 1.441072e-002 0.000000e+000
         vertex 1.095800e-001 1.535727e-002 0.000000e+000
      endloop
   endfacet
   facet normal 2.008531e-001 9.796214e-001 0.000000e+000
      outer loop
         vertex 1.141538e-001 1.441072e-002 7.500000e-001
         vertex 1.095800e-001 1.535727e-002 0.000000e+000
         vertex 1.095800e-001 1.535727e-002 7.500000e-001
      endloop
   endfacet
   facet normal 1.906132e-001 9.816653e-001 0.000000e+000
      outer loop
         vertex 1.095800e-001 1.535727e-002 7.500000e-001
         vertex 1.095800e-001 1.535727e-002 0.000000e+000
         vertex 1.009961e-001 1.699667e-002 0.000000e+000
      endloop
   endfacet
   facet normal 1.843544e-001 9.828598e-001 0.000000e+000
      outer loop
         vertex 1.095800e-001 1.535727e-002 7.500000e-001
         vertex 1.009961e-001 1.699667e-002 0.000000e+000
         vertex 1.009961e-001 1.699667e-002 7.500000e-001
      endloop
   endfacet
   facet normal 1.707913e-001 9.853072e-001 0.000000e+000
      outer loop
         vertex 1.009961e-001 1.699667e-002 7.500000e-001
         vertex 1.009961e-001 1.699667e-002 0.000000e+000
         vertex 9.363875e-002 1.824835e-002 0.000000e+000
      endloop
   endfacet
   facet normal 1.634845e-001 9.865460e-001 0.000000e+000
      outer loop
         vertex 1.009961e-001 1.699667e-002 7.500000e-001
         vertex 9.363875e-002 1.824835e-002 0.000000e+000
         vertex 9.363875e-002 1.824835e-002 7.500000e-001
      endloop
   endfacet
   facet normal 1.476639e-001 9.890376e-001 0.000000e+000
      outer loop
         vertex 9.363875e-002 1.824835e-002 7.500000e-001
         vertex 9.363875e-002 1.824835e-002 0.000000e+000
         vertex 8.704671e-002 1.920688e-002 0.000000e+000
      endloop
   endfacet
   facet normal 1.391472e-001 9.902717e-001 0.000000e+000
      outer loop
         vertex 9.363875e-002 1.824835e-002 7.500000e-001
         vertex 8.704671e-002 1.920688e-002 0.000000e+000
         vertex 8.704671e-002 1.920688e-002 7.500000e-001
      endloop
   endfacet
   facet normal 1.210515e-001 9.926463e-001 0.000000e+000
      outer loop
         vertex 8.704671e-002 1.920688e-002 7.500000e-001
         vertex 8.704671e-002 1.920688e-002 0.000000e+000
         vertex 8.102761e-002 1.991417e-002 0.000000e+000
      endloop
   endfacet
   facet normal 1.114700e-001 9.937678e-001 0.000000e+000
      outer loop
         vertex 8.704671e-002 1.920688e-002 7.500000e-001
         vertex 8.102761e-002 1.991417e-002 0.000000e+000
         vertex 8.102761e-002 1.991417e-002 7.500000e-001
      endloop
   endfacet
   facet normal 9.055309e-002 9.958916e-001 0.000000e+000
      outer loop
         vertex 8.102761e-002 1.991417e-002 7.500000e-001
         vertex 8.102761e-002 1.991417e-002 0.000000e+000
         vertex 7.501490e-002 2.042902e-002 0.000000e+000
      endloop
   endfacet
   facet normal 7.921389e-002 9.968576e-001 0.000000e+000
      outer loop
         vertex 8.102761e-002 1.991417e-002 7.500000e-001
         vertex 7.501490e-002 2.042902e-002 0.000000e+000
         vertex 7.501490e-002 2.042902e-002 7.500000e-001
      endloop
   endfacet
   facet normal 5.862634e-002 9.982800e-001 0.000000e+000
      outer loop
         vertex 7.501490e-002 2.042902e-002 7.500000e-001
         vertex 7.501490e-002 2.042902e-002 0.000000e+000
         vertex 6.906759e-002 2.074333e-002 0.000000e+000
      endloop
   endfacet
   facet normal 4.938093e-002 9.987800e-001 0.000000e+000
      outer loop
         vertex 7.501490e-002 2.042902e-002 7.500000e-001
         vertex 6.906759e-002 2.074333e-002 0.000000e+000
         vertex 6.906759e-002 2.074333e-002 7.500000e-001
      endloop
   endfacet
   facet normal 3.543823e-002 9.993719e-001 0.000000e+000
      outer loop
         vertex 6.906759e-002 2.074333e-002 7.500000e-001
         vertex 6.906759e-002 2.074333e-002 0.000000e+000
         vertex 6.007361e-002 2.101631e-002 0.000000e+000
      endloop
   endfacet
   facet normal 3.074347e-002 9.995273e-001 0.000000e+000
      outer loop
         vertex 6.906759e-002 2.074333e-002 7.500000e-001
         vertex 6.007361e-002 2.101631e-002 0.000000e+000
         vertex 6.007361e-002 2.101631e-002 7.500000e-001
      endloop
   endfacet
   facet normal 1.968670e-002 9.998062e-001 0.000000e+000
      outer loop
         vertex 6.007361e-002 2.101631e-002 7.500000e-001
         vertex 6.007361e-002 2.101631e-002 0.000000e+000
         vertex 5.521459e-002 2.111083e-002 0.000000e+000
      endloop
   endfacet
   facet normal 1.332420e-002 9.999112e-001 0.000000e+000
      outer loop
         vertex 6.007361e-002 2.101631e-002 7.500000e-001
         vertex 5.521459e-002 2.111083e-002 0.000000e+000
         vertex 5.521459e-002 2.111083e-002 7.500000e-001
      endloop
   endfacet
   facet normal -7.171391e-003 9.999743e-001 0.000000e+000
      outer loop
         vertex 5.521459e-002 2.111083e-002 7.500000e-001
         vertex 5.521459e-002 2.111083e-002 0.000000e+000
         vertex 5.074669e-002 2.104869e-002 0.000000e+000
      endloop
   endfacet
   facet normal -2.130559e-002 9.997730e-001 0.000000e+000
      outer loop
         vertex 5.521459e-002 2.111083e-002 7.500000e-001
         vertex 5.074669e-002 2.104869e-002 0.000000e+000
         vertex 5.074669e-002 2.104869e-002 7.500000e-001
      endloop
   endfacet
   facet normal -4.446969e-002 9.990108e-001 0.000000e+000
      outer loop
         vertex 5.074669e-002 2.104869e-002 7.500000e-001
         vertex 5.074669e-002 2.104869e-002 0.000000e+000
         vertex 4.508153e-002 2.075192e-002 0.000000e+000
      endloop
   endfacet
   facet normal -5.350377e-002 9.985677e-001 0.000000e+000
      outer loop
         vertex 5.074669e-002 2.104869e-002 7.500000e-001
         vertex 4.508153e-002 2.075192e-002 0.000000e+000
         vertex 4.508153e-002 2.075192e-002 7.500000e-001
      endloop
   endfacet
   facet normal -6.913421e-002 9.976074e-001 0.000000e+000
      outer loop
         vertex 4.508153e-002 2.075192e-002 7.500000e-001
         vertex 4.508153e-002 2.075192e-002 0.000000e+000
         vertex 3.782042e-002 2.023368e-002 1.110223e-016
      endloop
   endfacet
   facet normal -7.573293e-002 9.971281e-001 0.000000e+000
      outer loop
         vertex 4.508153e-002 2.075192e-002 7.500000e-001
         vertex 3.782042e-002 2.023368e-002 1.110223e-016
         vertex 3.782042e-002 2.023368e-002 7.500000e-001
      endloop
   endfacet
   facet normal -9.284551e-002 9.956806e-001 0.000000e+000
      outer loop
         vertex 3.782042e-002 2.023368e-002 7.500000e-001
         vertex 3.782042e-002 2.023368e-002 1.110223e-016
         vertex 3.300789e-002 1.976999e-002 0.000000e+000
      endloop
   endfacet
   facet normal -1.033538e-001 9.946447e-001 0.000000e+000
      outer loop
         vertex 3.782042e-002 2.023368e-002 7.500000e-001
         vertex 3.300789e-002 1.976999e-002 0.000000e+000
         vertex 3.300789e-002 1.976999e-002 7.500000e-001
      endloop
   endfacet
   facet normal -1.288536e-001 9.916636e-001 0.000000e+000
      outer loop
         vertex 3.300789e-002 1.976999e-002 7.500000e-001
         vertex 3.300789e-002 1.976999e-002 0.000000e+000
         vertex 2.895027e-002 1.921459e-002 0.000000e+000
      endloop
   endfacet
   facet normal -1.438319e-001 9.896021e-001 0.000000e+000
      outer loop
         vertex 3.300789e-002 1.976999e-002 7.500000e-001
         vertex 2.895027e-002 1.921459e-002 0.000000e+000
         vertex 2.895027e-002 1.921459e-002 7.500000e-001
      endloop
   endfacet
   facet normal -1.712430e-001 9.852288e-001 0.000000e+000
      outer loop
         vertex 2.895027e-002 1.921459e-002 7.500000e-001
         vertex 2.895027e-002 1.921459e-002 0.000000e+000
         vertex 2.477533e-002 1.845573e-002 0.000000e+000
      endloop
   endfacet
   facet normal -1.836867e-001 9.829848e-001 0.000000e+000
      outer loop
         vertex 2.895027e-002 1.921459e-002 7.500000e-001
         vertex 2.477533e-002 1.845573e-002 0.000000e+000
         vertex 2.477533e-002 1.845573e-002 7.500000e-001
      endloop
   endfacet
   facet normal -2.065038e-001 9.784458e-001 0.000000e+000
      outer loop
         vertex 2.477533e-002 1.845573e-002 7.500000e-001
         vertex 2.477533e-002 1.845573e-002 0.000000e+000
         vertex 2.024785e-002 1.748080e-002 0.000000e+000
      endloop
   endfacet
   facet normal -2.168864e-001 9.761969e-001 0.000000e+000
      outer loop
         vertex 2.477533e-002 1.845573e-002 7.500000e-001
         vertex 2.024785e-002 1.748080e-002 0.000000e+000
         vertex 2.024785e-002 1.748080e-002 7.500000e-001
      endloop
   endfacet
   facet normal -2.412294e-001 9.704680e-001 0.000000e+000
      outer loop
         vertex 2.024785e-002 1.748080e-002 7.500000e-001
         vertex 2.024785e-002 1.748080e-002 0.000000e+000
         vertex 1.687583e-002 1.662259e-002 0.000000e+000
      endloop
   endfacet
   facet normal -2.551685e-001 9.668966e-001 0.000000e+000
      outer loop
         vertex 2.024785e-002 1.748080e-002 7.500000e-001
         vertex 1.687583e-002 1.662259e-002 0.000000e+000
         vertex 1.687583e-002 1.662259e-002 7.500000e-001
      endloop
   endfacet
   facet normal -2.864141e-001 9.581059e-001 0.000000e+000
      outer loop
         vertex 1.687583e-002 1.662259e-002 7.500000e-001
         vertex 1.687583e-002 1.662259e-002 0.000000e+000
         vertex 1.393537e-002 1.571872e-002 0.000000e+000
      endloop
   endfacet
   facet normal -3.036886e-001 9.527713e-001 0.000000e+000
      outer loop
         vertex 1.687583e-002 1.662259e-002 7.500000e-001
         vertex 1.393537e-002 1.571872e-002 0.000000e+000
         vertex 1.393537e-002 1.571872e-002 7.500000e-001
      endloop
   endfacet
   facet normal -3.406069e-001 9.402059e-001 0.000000e+000
      outer loop
         vertex 1.393537e-002 1.571872e-002 7.500000e-001
         vertex 1.393537e-002 1.571872e-002 0.000000e+000
         vertex 1.135747e-002 1.475768e-002 0.000000e+000
      endloop
   endfacet
   facet normal -3.602149e-001 9.328694e-001 0.000000e+000
      outer loop
         vertex 1.393537e-002 1.571872e-002 7.500000e-001
         vertex 1.135747e-002 1.475768e-002 0.000000e+000
         vertex 1.135747e-002 1.475768e-002 7.500000e-001
      endloop
   endfacet
   facet normal -4.011877e-001 9.159959e-001 0.000000e+000
      outer loop
         vertex 1.135747e-002 1.475768e-002 7.500000e-001
         vertex 1.135747e-002 1.475768e-002 0.000000e+000
         vertex 9.070337e-003 1.372683e-002 0.000000e+000
      endloop
   endfacet
   facet normal -4.225110e-001 9.063578e-001 0.000000e+000
      outer loop
         vertex 1.135747e-002 1.475768e-002 7.500000e-001
         vertex 9.070337e-003 1.372683e-002 0.000000e+000
         vertex 9.070337e-003 1.372683e-002 7.500000e-001
      endloop
   endfacet
   facet normal -4.664104e-001 8.845685e-001 0.000000e+000
      outer loop
         vertex 9.070337e-003 1.372683e-002 7.500000e-001
         vertex 9.070337e-003 1.372683e-002 0.000000e+000
         vertex 6.986511e-003 1.259504e-002 0.000000e+000
      endloop
   endfacet
   facet normal -4.889378e-001 8.723187e-001 0.000000e+000
      outer loop
         vertex 9.070337e-003 1.372683e-002 7.500000e-001
         vertex 6.986511e-003 1.259504e-002 0.000000e+000
         vertex 6.986511e-003 1.259504e-002 7.500000e-001
      endloop
   endfacet
   facet normal -5.341380e-001 8.453973e-001 0.000000e+000
      outer loop
         vertex 6.986511e-003 1.259504e-002 7.500000e-001
         vertex 6.986511e-003 1.259504e-002 0.000000e+000
         vertex 4.884521e-003 1.122604e-002 0.000000e+000
      endloop
   endfacet
   facet normal -5.567740e-001 8.306640e-001 0.000000e+000
      outer loop
         vertex 6.986511e-003 1.259504e-002 7.500000e-001
         vertex 4.884521e-003 1.122604e-002 0.000000e+000
         vertex 4.884521e-003 1.122604e-002 7.500000e-001
      endloop
   endfacet
   facet normal -5.982971e-001 8.012744e-001 0.000000e+000
      outer loop
         vertex 4.884521e-003 1.122604e-002 7.500000e-001
         vertex 4.884521e-003 1.122604e-002 0.000000e+000
         vertex 3.364802e-003 1.007211e-002 0.000000e+000
      endloop
   endfacet
   facet normal -6.172757e-001 7.867469e-001 0.000000e+000
      outer loop
         vertex 4.884521e-003 1.122604e-002 7.500000e-001
         vertex 3.364802e-003 1.007211e-002 0.000000e+000
         vertex 3.364802e-003 1.007211e-002 7.500000e-001
      endloop
   endfacet
   facet normal -6.627194e-001 7.488678e-001 0.000000e+000
      outer loop
         vertex 3.364802e-003 1.007211e-002 7.500000e-001
         vertex 3.364802e-003 1.007211e-002 0.000000e+000
         vertex 2.318738e-003 9.122164e-003 -1.110223e-016
      endloop
   endfacet
   facet normal -6.887547e-001 7.249945e-001 0.000000e+000
      outer loop
         vertex 3.364802e-003 1.007211e-002 7.500000e-001
         vertex 2.318738e-003 9.122164e-003 -1.110223e-016
         vertex 2.318738e-003 9.122164e-003 7.500000e-001
      endloop
   endfacet
   facet normal -7.445711e-001 6.675432e-001 0.000000e+000
      outer loop
         vertex 2.318738e-003 9.122164e-003 7.500000e-001
         vertex 2.318738e-003 9.122164e-003 -1.110223e-016
         vertex 1.464530e-003 8.125911e-003 0.000000e+000
      endloop
   endfacet
   facet normal -7.738029e-001 6.334264e-001 0.000000e+000
      outer loop
         vertex 2.318738e-003 9.122164e-003 7.500000e-001
         vertex 1.464530e-003 8.125911e-003 0.000000e+000
         vertex 1.464530e-003 8.125911e-003 7.500000e-001
      endloop
   endfacet
   facet normal -8.257342e-001 5.640594e-001 0.000000e+000
      outer loop
         vertex 1.464530e-003 8.125911e-003 7.500000e-001
         vertex 1.464530e-003 8.125911e-003 0.000000e+000
         vertex 8.549896e-004 7.205293e-003 0.000000e+000
      endloop
   endfacet
   facet normal -8.486433e-001 5.289655e-001 0.000000e+000
      outer loop
         vertex 1.464530e-003 8.125911e-003 7.500000e-001
         vertex 8.549896e-004 7.205293e-003 0.000000e+000
         vertex 8.549896e-004 7.205293e-003 7.500000e-001
      endloop
   endfacet
   facet normal -8.926522e-001 4.507461e-001 0.000000e+000
      outer loop
         vertex 8.549896e-004 7.205293e-003 7.500000e-001
         vertex 8.549896e-004 7.205293e-003 0.000000e+000
         vertex 5.768393e-004 6.629857e-003 0.000000e+000
      endloop
   endfacet
   facet normal -9.132727e-001 4.073489e-001 0.000000e+000
      outer loop
         vertex 8.549896e-004 7.205293e-003 7.500000e-001
         vertex 5.768393e-004 6.629857e-003 0.000000e+000
         vertex 5.768393e-004 6.629857e-003 7.500000e-001
      endloop
   endfacet
   facet normal -9.475904e-001 3.194878e-001 0.000000e+000
      outer loop
         vertex 5.768393e-004 6.629857e-003 7.500000e-001
         vertex 5.768393e-004 6.629857e-003 0.000000e+000
         vertex 4.582684e-004 6.254646e-003 0.000000e+000
      endloop
   endfacet
   facet normal -9.614223e-001 2.750764e-001 0.000000e+000
      outer loop
         vertex 5.768393e-004 6.629857e-003 7.500000e-001
         vertex 4.582684e-004 6.254646e-003 0.000000e+000
         vertex 4.582684e-004 6.254646e-003 7.500000e-001
      endloop
   endfacet
   facet normal -9.834043e-001 1.814274e-001 0.000000e+000
      outer loop
         vertex 4.582684e-004 6.254646e-003 7.500000e-001
         vertex 4.582684e-004 6.254646e-003 0.000000e+000
         vertex 4.088502e-004 5.950016e-003 0.000000e+000
      endloop
   endfacet
   facet normal -9.912345e-001 1.321140e-001 0.000000e+000
      outer loop
         vertex 4.582684e-004 6.254646e-003 7.500000e-001
         vertex 4.088502e-004 5.950016e-003 0.000000e+000
         vertex 4.088502e-004 5.950016e-003 7.500000e-001
      endloop
   endfacet
   facet normal -9.995030e-001 3.152518e-002 0.000000e+000
      outer loop
         vertex 4.088502e-004 5.950016e-003 7.500000e-001
         vertex 4.088502e-004 5.950016e-003 0.000000e+000
         vertex 4.067725e-004 5.697137e-003 0.000000e+000
      endloop
   endfacet
   facet normal -9.998047e-001 -1.976153e-002 0.000000e+000
      outer loop
         vertex 4.088502e-004 5.950016e-003 7.500000e-001
         vertex 4.067725e-004 5.697137e-003 0.000000e+000
         vertex 4.067725e-004 5.697137e-003 7.500000e-001
      endloop
   endfacet
   facet normal -9.924718e-001 -1.224735e-001 0.000000e+000
      outer loop
         vertex 4.067725e-004 5.697137e-003 7.500000e-001
         vertex 4.067725e-004 5.697137e-003 0.000000e+000
         vertex 4.394487e-004 5.477153e-003 0.000000e+000
      endloop
   endfacet
   facet normal -9.847645e-001 -1.738937e-001 0.000000e+000
      outer loop
         vertex 4.067725e-004 5.697137e-003 7.500000e-001
         vertex 4.394487e-004 5.477153e-003 0.000000e+000
         vertex 4.394487e-004 5.477153e-003 7.500000e-001
      endloop
   endfacet
   facet normal -9.609286e-001 -2.767963e-001 0.000000e+000
      outer loop
         vertex 4.394487e-004 5.477153e-003 7.500000e-001
         vertex 4.394487e-004 5.477153e-003 0.000000e+000
         vertex 5.110374e-004 5.253683e-003 0.000000e+000
      endloop
   endfacet
   facet normal -9.445972e-001 -3.282319e-001 0.000000e+000
      outer loop
         vertex 4.394487e-004 5.477153e-003 7.500000e-001
         vertex 5.110374e-004 5.253683e-003 0.000000e+000
         vertex 5.110374e-004 5.253683e-003 7.500000e-001
      endloop
   endfacet
   facet normal -9.038830e-001 -4.277798e-001 0.000000e+000
      outer loop
         vertex 5.110374e-004 5.253683e-003 7.500000e-001
         vertex 5.110374e-004 5.253683e-003 0.000000e+000
         vertex 6.491230e-004 4.983956e-003 0.000000e+000
      endloop
   endfacet
   facet normal -8.795031e-001 -4.758932e-001 0.000000e+000
      outer loop
         vertex 5.110374e-004 5.253683e-003 7.500000e-001
         vertex 6.491230e-004 4.983956e-003 0.000000e+000
         vertex 6.491230e-004 4.983956e-003 7.500000e-001
      endloop
   endfacet
   facet normal -8.239635e-001 -5.666428e-001 0.000000e+000
      outer loop
         vertex 6.491230e-004 4.983956e-003 7.500000e-001
         vertex 6.491230e-004 4.983956e-003 0.000000e+000
         vertex 9.023716e-004 4.639779e-003 0.000000e+000
      endloop
   endfacet
   facet normal -7.929072e-001 -6.093425e-001 0.000000e+000
      outer loop
         vertex 6.491230e-004 4.983956e-003 7.500000e-001
         vertex 9.023716e-004 4.639779e-003 0.000000e+000
         vertex 9.023716e-004 4.639779e-003 7.500000e-001
      endloop
   endfacet
   facet normal -7.251193e-001 -6.886233e-001 0.000000e+000
      outer loop
         vertex 9.023716e-004 4.639779e-003 7.500000e-001
         vertex 9.023716e-004 4.639779e-003 0.000000e+000
         vertex 1.378040e-003 4.169548e-003 0.000000e+000
      endloop
   endfacet
   facet normal -6.884644e-001 -7.252702e-001 0.000000e+000
      outer loop
         vertex 9.023716e-004 4.639779e-003 7.500000e-001
         vertex 1.378040e-003 4.169548e-003 0.000000e+000
         vertex 1.378040e-003 4.169548e-003 7.500000e-001
      endloop
   endfacet
   facet normal -6.085023e-001 -7.935521e-001 0.000000e+000
      outer loop
         vertex 1.378040e-003 4.169548e-003 7.500000e-001
         vertex 1.378040e-003 4.169548e-003 0.000000e+000
         vertex 2.091847e-003 3.655441e-003 0.000000e+000
      endloop
   endfacet
   facet normal -5.650711e-001 -8.250422e-001 0.000000e+000
      outer loop
         vertex 1.378040e-003 4.169548e-003 7.500000e-001
         vertex 2.091847e-003 3.655441e-003 0.000000e+000
         vertex 2.091847e-003 3.655441e-003 7.500000e-001
      endloop
   endfacet
   facet normal -4.761643e-001 -8.793563e-001 0.000000e+000
      outer loop
         vertex 2.091847e-003 3.655441e-003 7.500000e-001
         vertex 2.091847e-003 3.655441e-003 0.000000e+000
         vertex 3.180702e-003 3.109011e-003 0.000000e+000
      endloop
   endfacet
   facet normal -4.308400e-001 -9.024284e-001 0.000000e+000
      outer loop
         vertex 2.091847e-003 3.655441e-003 7.500000e-001
         vertex 3.180702e-003 3.109011e-003 0.000000e+000
         vertex 3.180702e-003 3.109011e-003 7.500000e-001
      endloop
   endfacet
   facet normal -3.495912e-001 -9.369023e-001 0.000000e+000
      outer loop
         vertex 3.180702e-003 3.109011e-003 7.500000e-001
         vertex 3.180702e-003 3.109011e-003 0.000000e+000
         vertex 4.671425e-003 2.594889e-003 0.000000e+000
      endloop
   endfacet
   facet normal -3.141167e-001 -9.493844e-001 0.000000e+000
      outer loop
         vertex 3.180702e-003 3.109011e-003 7.500000e-001
         vertex 4.671425e-003 2.594889e-003 0.000000e+000
         vertex 4.671425e-003 2.594889e-003 7.500000e-001
      endloop
   endfacet
   facet normal -2.493843e-001 -9.684046e-001 0.000000e+000
      outer loop
         vertex 4.671425e-003 2.594889e-003 7.500000e-001
         vertex 4.671425e-003 2.594889e-003 0.000000e+000
         vertex 6.667544e-003 2.120155e-003 0.000000e+000
      endloop
   endfacet
   facet normal -2.202701e-001 -9.754390e-001 0.000000e+000
      outer loop
         vertex 4.671425e-003 2.594889e-003 7.500000e-001
         vertex 6.667544e-003 2.120155e-003 0.000000e+000
         vertex 6.667544e-003 2.120155e-003 7.500000e-001
      endloop
   endfacet
   facet normal -1.711188e-001 -9.852504e-001 0.000000e+000
      outer loop
         vertex 6.667544e-003 2.120155e-003 7.500000e-001
         vertex 6.667544e-003 2.120155e-003 0.000000e+000
         vertex 9.429608e-003 1.680784e-003 0.000000e+000
      endloop
   endfacet
   facet normal -1.511751e-001 -9.885070e-001 0.000000e+000
      outer loop
         vertex 6.667544e-003 2.120155e-003 7.500000e-001
         vertex 9.429608e-003 1.680784e-003 0.000000e+000
         vertex 9.429608e-003 1.680784e-003 7.500000e-001
      endloop
   endfacet
   facet normal -1.188440e-001 -9.929129e-001 0.000000e+000
      outer loop
         vertex 9.429608e-003 1.680784e-003 7.500000e-001
         vertex 9.429608e-003 1.680784e-003 0.000000e+000
         vertex 1.348716e-002 1.237753e-003 0.000000e+000
      endloop
   endfacet
   facet normal -1.064899e-001 -9.943138e-001 0.000000e+000
      outer loop
         vertex 9.429608e-003 1.680784e-003 7.500000e-001
         vertex 1.348716e-002 1.237753e-003 0.000000e+000
         vertex 1.348716e-002 1.237753e-003 7.500000e-001
      endloop
   endfacet
   facet normal -9.240448e-002 -9.957216e-001 0.000000e+000
      outer loop
         vertex 1.348716e-002 1.237753e-003 7.500000e-001
         vertex 1.348716e-002 1.237753e-003 0.000000e+000
         vertex 1.923976e-002 6.962041e-004 0.000000e+000
      endloop
   endfacet
   facet normal -9.068740e-002 -9.958795e-001 0.000000e+000
      outer loop
         vertex 1.348716e-002 1.237753e-003 7.500000e-001
         vertex 1.923976e-002 6.962041e-004 0.000000e+000
         vertex 1.923976e-002 6.962041e-004 7.500000e-001
      endloop
   endfacet
   facet normal -7.558718e-002 -9.971392e-001 0.000000e+000
      outer loop
         vertex 1.923976e-002 6.962041e-004 7.500000e-001
         vertex 1.923976e-002 6.962041e-004 0.000000e+000
         vertex 2.330784e-002 4.033963e-004 0.000000e+000
      endloop
   endfacet
   facet normal -6.218828e-002 -9.980644e-001 0.000000e+000
      outer loop
         vertex 1.923976e-002 6.962041e-004 7.500000e-001
         vertex 2.330784e-002 4.033963e-004 0.000000e+000
         vertex 2.330784e-002 4.033963e-004 7.500000e-001
      endloop
   endfacet
   facet normal -3.799884e-002 -9.992778e-001 0.000000e+000
      outer loop
         vertex 2.330784e-002 4.033963e-004 7.500000e-001
         vertex 2.330784e-002 4.033963e-004 0.000000e+000
         vertex 2.757414e-002 2.800068e-004 0.000000e+000
      endloop
   endfacet
   facet normal -2.721144e-002 -9.996297e-001 0.000000e+000
      outer loop
         vertex 2.330784e-002 4.033963e-004 7.500000e-001
         vertex 2.757414e-002 2.800068e-004 0.000000e+000
         vertex 2.757414e-002 2.800068e-004 7.500000e-001
      endloop
   endfacet
   facet normal -1.876494e-002 -9.998239e-001 0.000000e+000
      outer loop
         vertex 2.757414e-002 2.800068e-004 7.500000e-001
         vertex 2.757414e-002 2.800068e-004 0.000000e+000
         vertex 3.574690e-002 1.009880e-004 0.000000e+000
      endloop
   endfacet
   facet normal -2.110767e-002 -9.997772e-001 0.000000e+000
      outer loop
         vertex 2.757414e-002 2.800068e-004 7.500000e-001
         vertex 3.574690e-002 1.009880e-004 0.000000e+000
         vertex 3.574690e-002 1.009880e-004 7.500000e-001
      endloop
   endfacet
   facet normal -1.404747e-002 -9.999014e-001 0.000000e+000
      outer loop
         vertex 3.574690e-002 1.009880e-004 7.500000e-001
         vertex 3.574690e-002 1.009880e-004 0.000000e+000
         vertex 4.201969e-002 4.826766e-005 0.000000e+000
      endloop
   endfacet
   facet normal -4.642598e-003 -9.999892e-001 0.000000e+000
      outer loop
         vertex 3.574690e-002 1.009880e-004 7.500000e-001
         vertex 4.201969e-002 4.826766e-005 0.000000e+000
         vertex 4.201969e-002 4.826766e-005 7.500000e-001
      endloop
   endfacet
   facet normal 5.703384e-003 -9.999837e-001 0.000000e+000
      outer loop
         vertex 4.201969e-002 4.826766e-005 7.500000e-001
         vertex 4.201969e-002 4.826766e-005 0.000000e+000
         vertex 5.512007e-002 1.222342e-004 0.000000e+000
      endloop
   endfacet
   facet normal 6.644913e-003 -9.999779e-001 0.000000e+000
      outer loop
         vertex 4.201969e-002 4.826766e-005 7.500000e-001
         vertex 5.512007e-002 1.222342e-004 0.000000e+000
         vertex 5.512007e-002 1.222342e-004 7.500000e-001
      endloop
   endfacet
   facet normal 1.675187e-002 -9.998597e-001 0.000000e+000
      outer loop
         vertex 5.512007e-002 1.222342e-004 7.500000e-001
         vertex 5.512007e-002 1.222342e-004 0.000000e+000
         vertex 6.037106e-002 2.217973e-004 0.000000e+000
      endloop
   endfacet
   facet normal 2.591666e-002 -9.996641e-001 0.000000e+000
      outer loop
         vertex 5.512007e-002 1.222342e-004 7.500000e-001
         vertex 6.037106e-002 2.217973e-004 0.000000e+000
         vertex 6.037106e-002 2.217973e-004 7.500000e-001
      endloop
   endfacet
   facet normal 4.638097e-002 -9.989238e-001 0.000000e+000
      outer loop
         vertex 6.037106e-002 2.217973e-004 7.500000e-001
         vertex 6.037106e-002 2.217973e-004 0.000000e+000
         vertex 6.551496e-002 4.963623e-004 0.000000e+000
      endloop
   endfacet
   facet normal 5.767894e-002 -9.983352e-001 0.000000e+000
      outer loop
         vertex 6.037106e-002 2.217973e-004 7.500000e-001
         vertex 6.551496e-002 4.963623e-004 0.000000e+000
         vertex 6.551496e-002 4.963623e-004 7.500000e-001
      endloop
   endfacet
   facet normal 7.619697e-002 -9.970928e-001 0.000000e+000
      outer loop
         vertex 6.551496e-002 4.963623e-004 7.500000e-001
         vertex 6.551496e-002 4.963623e-004 0.000000e+000
         vertex 7.260440e-002 1.081285e-003 0.000000e+000
      endloop
   endfacet
   facet normal 8.342223e-002 -9.965143e-001 0.000000e+000
      outer loop
         vertex 6.551496e-002 4.963623e-004 7.500000e-001
         vertex 7.260440e-002 1.081285e-003 0.000000e+000
         vertex 7.260440e-002 1.081285e-003 7.500000e-001
      endloop
   endfacet
   facet normal 9.324966e-002 -9.956427e-001 0.000000e+000
      outer loop
         vertex 7.260440e-002 1.081285e-003 7.500000e-001
         vertex 7.260440e-002 1.081285e-003 0.000000e+000
         vertex 8.738156e-002 2.449357e-003 0.000000e+000
      endloop
   endfacet
   facet normal 9.585599e-002 -9.953952e-001 0.000000e+000
      outer loop
         vertex 7.260440e-002 1.081285e-003 7.500000e-001
         vertex 8.738156e-002 2.449357e-003 0.000000e+000
         vertex 8.738156e-002 2.449357e-003 7.500000e-001
      endloop
   endfacet
   facet normal 1.036788e-001 -9.946109e-001 0.000000e+000
      outer loop
         vertex 8.738156e-002 2.449357e-003 7.500000e-001
         vertex 8.738156e-002 2.449357e-003 0.000000e+000
         vertex 9.716234e-002 3.511242e-003 0.000000e+000
      endloop
   endfacet
   facet normal 1.088932e-001 -9.940534e-001 0.000000e+000
      outer loop
         vertex 8.738156e-002 2.449357e-003 7.500000e-001
         vertex 9.716234e-002 3.511242e-003 0.000000e+000
         vertex 9.716234e-002 3.511242e-003 7.500000e-001
      endloop
   endfacet
   facet normal 1.093683e-001 -9.940013e-001 0.000000e+000
      outer loop
         vertex 9.716234e-002 3.511242e-003 7.500000e-001
         vertex 9.716234e-002 3.511242e-003 0.000000e+000
         vertex 1.074232e-001 4.642536e-003 0.000000e+000
      endloop
   endfacet
   facet normal 1.046295e-001 -9.945113e-001 0.000000e+000
      outer loop
         vertex 9.716234e-002 3.511242e-003 7.500000e-001
         vertex 1.074232e-001 4.642536e-003 0.000000e+000
         vertex 1.074232e-001 4.642536e-003 7.500000e-001
      endloop
   endfacet
   facet normal 9.279168e-002 -9.956855e-001 0.000000e+000
      outer loop
         vertex 1.074232e-001 4.642536e-003 7.500000e-001
         vertex 1.074232e-001 4.642536e-003 0.000000e+000
         vertex 1.160076e-001 5.411933e-003 0.000000e+000
      endloop
   endfacet
   facet normal 8.568983e-002 -9.963219e-001 0.000000e+000
      outer loop
         vertex 1.074232e-001 4.642536e-003 7.500000e-001
         vertex 1.160076e-001 5.411933e-003 0.000000e+000
         vertex 1.160076e-001 5.411933e-003 7.500000e-001
      endloop
   endfacet
   facet normal 7.182463e-002 -9.974173e-001 0.000000e+000
      outer loop
         vertex 1.160076e-001 5.411933e-003 7.500000e-001
         vertex 1.160076e-001 5.411933e-003 0.000000e+000
         vertex 1.230898e-001 5.904026e-003 0.000000e+000
      endloop
   endfacet
   facet normal 6.506166e-002 -9.978812e-001 0.000000e+000
      outer loop
         vertex 1.160076e-001 5.411933e-003 7.500000e-001
         vertex 1.230898e-001 5.904026e-003 0.000000e+000
         vertex 1.230898e-001 5.904026e-003 7.500000e-001
      endloop
   endfacet
   facet normal 4.734248e-002 -9.988787e-001 0.000000e+000
      outer loop
         vertex 1.230898e-001 5.904026e-003 7.500000e-001
         vertex 1.230898e-001 5.904026e-003 0.000000e+000
         vertex 1.290223e-001 6.158050e-003 0.000000e+000
      endloop
   endfacet
   facet normal 3.638193e-002 -9.993380e-001 0.000000e+000
      outer loop
         vertex 1.230898e-001 5.904026e-003 7.500000e-001
         vertex 1.290223e-001 6.158050e-003 0.000000e+000
         vertex 1.290223e-001 6.158050e-003 7.500000e-001
      endloop
   endfacet
   facet normal 2.118360e-002 -9.997756e-001 0.000000e+000
      outer loop
         vertex 1.290223e-001 6.158050e-003 7.500000e-001
         vertex 1.290223e-001 6.158050e-003 0.000000e+000
         vertex 1.369222e-001 6.283798e-003 0.000000e+000
      endloop
   endfacet
   facet normal 1.694842e-002 -9.998564e-001 0.000000e+000
      outer loop
         vertex 1.290223e-001 6.158050e-003 7.500000e-001
         vertex 1.369222e-001 6.283798e-003 0.000000e+000
         vertex 1.369222e-001 6.283798e-003 7.500000e-001
      endloop
   endfacet
   facet normal 1.382145e-003 -9.999990e-001 0.000000e+000
      outer loop
         vertex 1.369222e-001 6.283798e-003 7.500000e-001
         vertex 1.369222e-001 6.283798e-003 0.000000e+000
         vertex 1.401757e-001 6.277116e-003 0.000000e+000
      endloop
   endfacet
   facet normal -9.950356e-003 -9.999505e-001 0.000000e+000
      outer loop
         vertex 1.369222e-001 6.283798e-003 7.500000e-001
         vertex 1.401757e-001 6.277116e-003 0.000000e+000
         vertex 1.401757e-001 6.277116e-003 7.500000e-001
      endloop
   endfacet
   facet normal -3.580809e-002 -9.993587e-001 0.000000e+000
      outer loop
         vertex 1.401757e-001 6.277116e-003 7.500000e-001
         vertex 1.401757e-001 6.277116e-003 0.000000e+000
         vertex 1.443607e-001 6.084152e-003 0.000000e+000
      endloop
   endfacet
   facet normal -5.033157e-002 -9.987326e-001 0.000000e+000
      outer loop
         vertex 1.401757e-001 6.277116e-003 7.500000e-001
         vertex 1.443607e-001 6.084152e-003 0.000000e+000
         vertex 1.443607e-001 6.084152e-003 7.500000e-001
      endloop
   endfacet
   facet normal -6.290771e-002 -9.980194e-001 0.000000e+000
      outer loop
         vertex 1.443607e-001 6.084152e-003 7.500000e-001
         vertex 1.443607e-001 6.084152e-003 0.000000e+000
         vertex 1.483786e-001 5.816039e-003 0.000000e+000
      endloop
   endfacet
   facet normal -6.097383e-002 -9.981394e-001 0.000000e+000
      outer loop
         vertex 1.443607e-001 6.084152e-003 7.500000e-001
         vertex 1.483786e-001 5.816039e-003 0.000000e+000
         vertex 1.483786e-001 5.816039e-003 7.500000e-001
      endloop
   endfacet
   facet normal -4.970572e-002 -9.987639e-001 0.000000e+000
      outer loop
         vertex 1.483786e-001 5.816039e-003 7.500000e-001
         vertex 1.483786e-001 5.816039e-003 0.000000e+000
         vertex 1.495359e-001 5.759964e-003 0.000000e+000
      endloop
   endfacet
   facet normal -4.036655e-002 -9.991850e-001 0.000000e+000
      outer loop
         vertex 1.483786e-001 5.816039e-003 7.500000e-001
         vertex 1.495359e-001 5.759964e-003 0.000000e+000
         vertex 1.495359e-001 5.759964e-003 7.500000e-001
      endloop
   endfacet
   facet normal -9.665729e-003 -9.999533e-001 0.000000e+000
      outer loop
         vertex 1.495359e-001 5.759964e-003 7.500000e-001
         vertex 1.495359e-001 5.759964e-003 0.000000e+000
         vertex 1.501071e-001 5.755594e-003 0.000000e+000
      endloop
   endfacet
   facet normal 1.170738e-002 -9.999315e-001 0.000000e+000
      outer loop
         vertex 1.495359e-001 5.759964e-003 7.500000e-001
         vertex 1.501071e-001 5.755594e-003 0.000000e+000
         vertex 1.501071e-001 5.755594e-003 7.500000e-001
      endloop
   endfacet
   facet normal 4.253214e-002 -9.990951e-001 0.000000e+000
      outer loop
         vertex 1.501071e-001 5.755594e-003 7.500000e-001
         vertex 1.501071e-001 5.755594e-003 0.000000e+000
         vertex 1.501909e-001 5.759458e-003 0.000000e+000
      endloop
   endfacet
   facet normal 5.199591e-002 -9.986473e-001 0.000000e+000
      outer loop
         vertex 1.501071e-001 5.755594e-003 7.500000e-001
         vertex 1.501909e-001 5.759458e-003 0.000000e+000
         vertex 1.501909e-001 5.759458e-003 7.500000e-001
      endloop
   endfacet
   facet normal 7.270891e-002 -9.973532e-001 0.000000e+000
      outer loop
         vertex 1.501909e-001 5.759458e-003 7.500000e-001
         vertex 1.501909e-001 5.759458e-003 0.000000e+000
         vertex 1.502513e-001 5.764122e-003 0.000000e+000
      endloop
   endfacet
   facet normal 8.395582e-002 -9.964695e-001 0.000000e+000
      outer loop
         vertex 1.501909e-001 5.759458e-003 7.500000e-001
         vertex 1.502513e-001 5.764122e-003 0.000000e+000
         vertex 1.502513e-001 5.764122e-003 7.500000e-001
      endloop
   endfacet
   facet normal 1.416783e-001 -9.899127e-001 0.000000e+000
      outer loop
         vertex 1.502513e-001 5.764122e-003 7.500000e-001
         vertex 1.502513e-001 5.764122e-003 0.000000e+000
         vertex 1.503477e-001 5.778593e-003 0.000000e+000
      endloop
   endfacet
   facet normal 1.879567e-001 -9.821773e-001 0.000000e+000
      outer loop
         vertex 1.502513e-001 5.764122e-003 7.500000e-001
         vertex 1.503477e-001 5.778593e-003 0.000000e+000
         vertex 1.503477e-001 5.778593e-003 7.500000e-001
      endloop
   endfacet
   facet normal 2.746828e-001 -9.615349e-001 0.000000e+000
      outer loop
         vertex 1.503477e-001 5.778593e-003 7.500000e-001
         vertex 1.503477e-001 5.778593e-003 0.000000e+000
         vertex 1.503741e-001 5.786512e-003 0.000000e+000
      endloop
   endfacet
   facet normal 3.152241e-001 -9.490172e-001 0.000000e+000
      outer loop
         vertex 1.503477e-001 5.778593e-003 7.500000e-001
         vertex 1.503741e-001 5.786512e-003 0.000000e+000
         vertex 1.503741e-001 5.786512e-003 7.500000e-001
      endloop
   endfacet
   facet normal 3.976797e-001 -9.175243e-001 0.000000e+000
      outer loop
         vertex 1.503741e-001 5.786512e-003 7.500000e-001
         vertex 1.503741e-001 5.786512e-003 0.000000e+000
         vertex 1.503869e-001 5.792283e-003 0.000000e+000
      endloop
   endfacet
   facet normal 4.394810e-001 -8.982518e-001 0.000000e+000
      outer loop
         vertex 1.503741e-001 5.786512e-003 7.500000e-001
         vertex 1.503869e-001 5.792283e-003 0.000000e+000
         vertex 1.503869e-001 5.792283e-003 7.500000e-001
      endloop
   endfacet
   facet normal 5.199056e-001 -8.542237e-001 0.000000e+000
      outer loop
         vertex 1.503869e-001 5.792283e-003 7.500000e-001
         vertex 1.503869e-001 5.792283e-003 0.000000e+000
         vertex 1.503935e-001 5.796456e-003 0.000000e+000
      endloop
   endfacet
   facet normal 5.585355e-001 -8.294806e-001 0.000000e+000
      outer loop
         vertex 1.503869e-001 5.792283e-003 7.500000e-001
         vertex 1.503935e-001 5.796456e-003 0.000000e+000
         vertex 1.503935e-001 5.796456e-003 7.500000e-001
      endloop
   endfacet
   facet normal 6.344503e-001 -7.729636e-001 0.000000e+000
      outer loop
         vertex 1.503935e-001 5.796456e-003 7.500000e-001
         vertex 1.503935e-001 5.796456e-003 0.000000e+000
         vertex 1.503976e-001 5.799920e-003 0.000000e+000
      endloop
   endfacet
   facet normal 6.715584e-001 -7.409516e-001 0.000000e+000
      outer loop
         vertex 1.503935e-001 5.796456e-003 7.500000e-001
         vertex 1.503976e-001 5.799920e-003 0.000000e+000
         vertex 1.503976e-001 5.799920e-003 7.500000e-001
      endloop
   endfacet
   facet normal 7.417675e-001 -6.706571e-001 0.000000e+000
      outer loop
         vertex 1.503976e-001 5.799920e-003 7.500000e-001
         vertex 1.503976e-001 5.799920e-003 0.000000e+000
         vertex 1.504001e-001 5.802856e-003 0.000000e+000
      endloop
   endfacet
   facet normal 7.747552e-001 -6.322613e-001 0.000000e+000
      outer loop
         vertex 1.503976e-001 5.799920e-003 7.500000e-001
         vertex 1.504001e-001 5.802856e-003 0.000000e+000
         vertex 1.504001e-001 5.802856e-003 7.500000e-001
      endloop
   endfacet
   facet normal 8.350660e-001 -5.501499e-001 0.000000e+000
      outer loop
         vertex 1.504001e-001 5.802856e-003 7.500000e-001
         vertex 1.504001e-001 5.802856e-003 0.000000e+000
         vertex 1.504017e-001 5.805450e-003 0.000000e+000
      endloop
   endfacet
   facet normal 8.623119e-001 -5.063775e-001 0.000000e+000
      outer loop
         vertex 1.504001e-001 5.802856e-003 7.500000e-001
         vertex 1.504017e-001 5.805450e-003 0.000000e+000
         vertex 1.504017e-001 5.805450e-003 7.500000e-001
      endloop
   endfacet
   facet normal 9.099825e-001 -4.146467e-001 0.000000e+000
      outer loop
         vertex 1.504017e-001 5.805450e-003 7.500000e-001
         vertex 1.504017e-001 5.805450e-003 0.000000e+000
         vertex 1.504028e-001 5.807845e-003 0.000000e+000
      endloop
   endfacet
   facet normal 9.303546e-001 -3.666610e-001 0.000000e+000
      outer loop
         vertex 1.504017e-001 5.805450e-003 7.500000e-001
         vertex 1.504028e-001 5.807845e-003 0.000000e+000
         vertex 1.504028e-001 5.807845e-003 7.500000e-001
      endloop
   endfacet
   facet normal 0.000000e+000 0.000000e+000 1.000000e+000
      outer loop
         vertex 1.495359e-001 5.759964e-003 7.500000e-001
         vertex 1.499502e-001 6.000431e-003 7.500000e-001
         vertex 1.483786e-001 5.816039e-003 7.500000e-001
      endloop
   endfacet
   facet normal 0.000000e+000 0.000000e+000 1.000000e+000
      outer loop
         vertex 1.483786e-001 5.816039e-003 7.500000e-001
         vertex 1.499502e-001 6.000431e-003 7.500000e-001
         vertex 1.472747e-001 6.618264e-003 7.500000e-001
      endloop
   endfacet
   facet normal 0.000000e+000 0.000000e+000 1.000000e+000
      outer loop
         vertex 1.483786e-001 5.816039e-003 7.500000e-001
         vertex 1.472747e-001 6.618264e-003 7.500000e-001
         vertex 1.443607e-001 6.084152e-003 7.500000e-001
      endloop
   endfacet
   facet normal 0.000000e+000 0.000000e+000 1.000000e+000
      outer loop
         vertex 1.443607e-001 6.084152e-003 7.500000e-001
         vertex 1.472747e-001 6.618264e-003 7.500000e-001
         vertex 1.448917e-001 7.123477e-003 7.500000e-001
      endloop
   endfacet
   facet normal 0.000000e+000 0.000000e+000 1.000000e+000
      outer loop
         vertex 1.443607e-001 6.084152e-003 7.500000e-001
         vertex 1.448917e-001 7.123477e-003 7.500000e-001
         vertex 1.401757e-001 6.277116e-003 7.500000e-001
      endloop
   endfacet
   facet normal 0.000000e+000 0.000000e+000 1.000000e+000
      outer loop
         vertex 1.401757e-001 6.277116e-003 7.500000e-001
         vertex 1.448917e-001 7.123477e-003 7.500000e-001
         vertex 1.407362e-001 8.071895e-003 7.500000e-001
      endloop
   endfacet
   facet normal 0.000000e+000 0.000000e+000 1.000000e+000
      outer loop
         vertex 1.401757e-001 6.277116e-003 7.500000e-001
         vertex 1.407362e-001 8.071895e-003 7.500000e-001
         vertex 1.369222e-001 6.283798e-003 7.500000e-001
      endloop
   endfacet
   facet normal 0.000000e+000 0.000000e+000 1.000000e+000
      outer loop
         vertex 1.369222e-001 6.283798e-003 7.500000e-001
         vertex 1.407362e-001 8.071895e-003 7.500000e-001
         vertex 1.358759e-001 9.356953e-003 7.500000e-001
      endloop
   endfacet
   facet normal 0.000000e+000 0.000000e+000 1.000000e+000
      outer loop
         vertex 1.369222e-001 6.283798e-003 7.500000e-001
         vertex 1.358759e-001 9.356953e-003 7.500000e-001
         vertex 1.290223e-001 6.158050e-003 7.500000e-001
      endloop
   endfacet
   facet normal 0.000000e+000 0.000000e+000 1.000000e+000
      outer loop
         vertex 1.290223e-001 6.158050e-003 7.500000e-001
         vertex 1.358759e-001 9.356953e-003 7.500000e-001
         vertex 1.318156e-001 1.033169e-002 7.500000e-001
      endloop
   endfacet
   facet normal 0.000000e+000 0.000000e+000 1.000000e+000
      outer loop
         vertex 1.290223e-001 6.158050e-003 7.500000e-001
         vertex 1.318156e-001 1.033169e-002 7.500000e-001
         vertex 1.230898e-001 5.904026e-003 7.500000e-001
      endloop
   endfacet
   facet normal 0.000000e+000 0.000000e+000 1.000000e+000
      outer loop
         vertex 1.230898e-001 5.904026e-003 7.500000e-001
         vertex 1.318156e-001 1.033169e-002 7.500000e-001
         vertex 1.215391e-001 1.274151e-002 7.500000e-001
      endloop
   endfacet
   facet normal 0.000000e+000 0.000000e+000 1.000000e+000
      outer loop
         vertex 1.230898e-001 5.904026e-003 7.500000e-001
         vertex 1.215391e-001 1.274151e-002 7.500000e-001
         vertex 1.160076e-001 5.411933e-003 7.500000e-001
      endloop
   endfacet
   facet normal 0.000000e+000 0.000000e+000 1.000000e+000
      outer loop
         vertex 1.160076e-001 5.411933e-003 7.500000e-001
         vertex 1.215391e-001 1.274151e-002 7.500000e-001
         vertex 1.141538e-001 1.441072e-002 7.500000e-001
      endloop
   endfacet
   facet normal 0.000000e+000 0.000000e+000 1.000000e+000
      outer loop
         vertex 1.160076e-001 5.411933e-003 7.500000e-001
         vertex 1.141538e-001 1.441072e-002 7.500000e-001
         vertex 1.074232e-001 4.642536e-003 7.500000e-001
      endloop
   endfacet
   facet normal 0.000000e+000 0.000000e+000 1.000000e+000
      outer loop
         vertex 1.495359e-001 5.759964e-003 7.500000e-001
         vertex 1.501071e-001 5.755594e-003 7.500000e-001
         vertex 1.499502e-001 6.000431e-003 7.500000e-001
      endloop
   endfacet
   facet normal 0.000000e+000 0.000000e+000 1.000000e+000
      outer loop
         vertex 1.499502e-001 6.000431e-003 7.500000e-001
         vertex 1.501071e-001 5.755594e-003 7.500000e-001
         vertex 1.501909e-001 5.759458e-003 7.500000e-001
      endloop
   endfacet
   facet normal 0.000000e+000 0.000000e+000 1.000000e+000
      outer loop
         vertex 1.499502e-001 6.000431e-003 7.500000e-001
         vertex 1.501909e-001 5.759458e-003 7.500000e-001
         vertex 1.503158e-001 5.878119e-003 7.500000e-001
      endloop
   endfacet
   facet normal 0.000000e+000 0.000000e+000 1.000000e+000
      outer loop
         vertex 1.503158e-001 5.878119e-003 7.500000e-001
         vertex 1.501909e-001 5.759458e-003 7.500000e-001
         vertex 1.502513e-001 5.764122e-003 7.500000e-001
      endloop
   endfacet
   facet normal 0.000000e+000 0.000000e+000 1.000000e+000
      outer loop
         vertex 1.503158e-001 5.878119e-003 7.500000e-001
         vertex 1.502513e-001 5.764122e-003 7.500000e-001
         vertex 1.503461e-001 5.863580e-003 7.500000e-001
      endloop
   endfacet
   facet normal 0.000000e+000 0.000000e+000 1.000000e+000
      outer loop
         vertex 2.757414e-002 2.800068e-004 7.500000e-001
         vertex 2.477533e-002 1.845573e-002 7.500000e-001
         vertex 2.330784e-002 4.033963e-004 7.500000e-001
      endloop
   endfacet
   facet normal 0.000000e+000 0.000000e+000 1.000000e+000
      outer loop
         vertex 2.330784e-002 4.033963e-004 7.500000e-001
         vertex 2.477533e-002 1.845573e-002 7.500000e-001
         vertex 2.024785e-002 1.748080e-002 7.500000e-001
      endloop
   endfacet
   facet normal 0.000000e+000 0.000000e+000 1.000000e+000
      outer loop
         vertex 2.330784e-002 4.033963e-004 7.500000e-001
         vertex 2.024785e-002 1.748080e-002 7.500000e-001
         vertex 1.923976e-002 6.962041e-004 7.500000e-001
      endloop
   endfacet
   facet normal 0.000000e+000 0.000000e+000 1.000000e+000
      outer loop
         vertex 1.923976e-002 6.962041e-004 7.500000e-001
         vertex 2.024785e-002 1.748080e-002 7.500000e-001
         vertex 1.687583e-002 1.662259e-002 7.500000e-001
      endloop
   endfacet
   facet normal 0.000000e+000 0.000000e+000 1.000000e+000
      outer loop
         vertex 1.923976e-002 6.962041e-004 7.500000e-001
         vertex 1.687583e-002 1.662259e-002 7.500000e-001
         vertex 1.348716e-002 1.237753e-003 7.500000e-001
      endloop
   endfacet
   facet normal 0.000000e+000 0.000000e+000 1.000000e+000
      outer loop
         vertex 1.348716e-002 1.237753e-003 7.500000e-001
         vertex 1.687583e-002 1.662259e-002 7.500000e-001
         vertex 1.393537e-002 1.571872e-002 7.500000e-001
      endloop
   endfacet
   facet normal 0.000000e+000 0.000000e+000 1.000000e+000
      outer loop
         vertex 1.348716e-002 1.237753e-003 7.500000e-001
         vertex 1.393537e-002 1.571872e-002 7.500000e-001
         vertex 9.429608e-003 1.680784e-003 7.500000e-001
      endloop
   endfacet
   facet normal 0.000000e+000 0.000000e+000 1.000000e+000
      outer loop
         vertex 9.429608e-003 1.680784e-003 7.500000e-001
         vertex 1.393537e-002 1.571872e-002 7.500000e-001
         vertex 1.135747e-002 1.475768e-002 7.500000e-001
      endloop
   endfacet
   facet normal 0.000000e+000 0.000000e+000 1.000000e+000
      outer loop
         vertex 9.429608e-003 1.680784e-003 7.500000e-001
         vertex 1.135747e-002 1.475768e-002 7.500000e-001
         vertex 9.070337e-003 1.372683e-002 7.500000e-001
      endloop
   endfacet
   facet normal 0.000000e+000 0.000000e+000 1.000000e+000
      outer loop
         vertex 5.512007e-002 1.222342e-004 7.500000e-001
         vertex 6.037106e-002 2.217973e-004 7.500000e-001
         vertex 6.007361e-002 2.101631e-002 7.500000e-001
      endloop
   endfacet
   facet normal 0.000000e+000 0.000000e+000 1.000000e+000
      outer loop
         vertex 6.007361e-002 2.101631e-002 7.500000e-001
         vertex 6.037106e-002 2.217973e-004 7.500000e-001
         vertex 6.551496e-002 4.963623e-004 7.500000e-001
      endloop
   endfacet
   facet normal 0.000000e+000 0.000000e+000 1.000000e+000
      outer loop
         vertex 6.007361e-002 2.101631e-002 7.500000e-001
         vertex 6.551496e-002 4.963623e-004 7.500000e-001
         vertex 6.906759e-002 2.074333e-002 7.500000e-001
      endloop
   endfacet
   facet normal 0.000000e+000 0.000000e+000 1.000000e+000
      outer loop
         vertex 6.906759e-002 2.074333e-002 7.500000e-001
         vertex 6.551496e-002 4.963623e-004 7.500000e-001
         vertex 7.260440e-002 1.081285e-003 7.500000e-001
      endloop
   endfacet
   facet normal 0.000000e+000 0.000000e+000 1.000000e+000
      outer loop
         vertex 6.906759e-002 2.074333e-002 7.500000e-001
         vertex 7.260440e-002 1.081285e-003 7.500000e-001
         vertex 7.501490e-002 2.042902e-002 7.500000e-001
      endloop
   endfacet
   facet normal 0.000000e+000 0.000000e+000 1.000000e+000
      outer loop
         vertex 1.141538e-001 1.441072e-002 7.500000e-001
         vertex 1.095800e-001 1.535727e-002 7.500000e-001
         vertex 1.074232e-001 4.642536e-003 7.500000e-001
      endloop
   endfacet
   facet normal 0.000000e+000 0.000000e+000 1.000000e+000
      outer loop
         vertex 1.074232e-001 4.642536e-003 7.500000e-001
         vertex 1.095800e-001 1.535727e-002 7.500000e-001
         vertex 1.009961e-001 1.699667e-002 7.500000e-001
      endloop
   endfacet
   facet normal 0.000000e+000 0.000000e+000 1.000000e+000
      outer loop
         vertex 1.074232e-001 4.642536e-003 7.500000e-001
         vertex 1.009961e-001 1.699667e-002 7.500000e-001
         vertex 9.716234e-002 3.511242e-003 7.500000e-001
      endloop
   endfacet
   facet normal 0.000000e+000 0.000000e+000 1.000000e+000
      outer loop
         vertex 9.716234e-002 3.511242e-003 7.500000e-001
         vertex 1.009961e-001 1.699667e-002 7.500000e-001
         vertex 9.363875e-002 1.824835e-002 7.500000e-001
      endloop
   endfacet
   facet normal 0.000000e+000 0.000000e+000 1.000000e+000
      outer loop
         vertex 9.716234e-002 3.511242e-003 7.500000e-001
         vertex 9.363875e-002 1.824835e-002 7.500000e-001
         vertex 8.738156e-002 2.449357e-003 7.500000e-001
      endloop
   endfacet
   facet normal 0.000000e+000 0.000000e+000 1.000000e+000
      outer loop
         vertex 8.738156e-002 2.449357e-003 7.500000e-001
         vertex 9.363875e-002 1.824835e-002 7.500000e-001
         vertex 8.704671e-002 1.920688e-002 7.500000e-001
      endloop
   endfacet
   facet normal 0.000000e+000 0.000000e+000 1.000000e+000
      outer loop
         vertex 8.738156e-002 2.449357e-003 7.500000e-001
         vertex 8.704671e-002 1.920688e-002 7.500000e-001
         vertex 7.260440e-002 1.081285e-003 7.500000e-001
      endloop
   endfacet
   facet normal 0.000000e+000 0.000000e+000 1.000000e+000
      outer loop
         vertex 7.260440e-002 1.081285e-003 7.500000e-001
         vertex 8.704671e-002 1.920688e-002 7.500000e-001
         vertex 8.102761e-002 1.991417e-002 7.500000e-001
      endloop
   endfacet
   facet normal 0.000000e+000 0.000000e+000 1.000000e+000
      outer loop
         vertex 7.260440e-002 1.081285e-003 7.500000e-001
         vertex 8.102761e-002 1.991417e-002 7.500000e-001
         vertex 7.501490e-002 2.042902e-002 7.500000e-001
      endloop
   endfacet
   facet normal 0.000000e+000 0.000000e+000 1.000000e+000
      outer loop
         vertex 1.502513e-001 5.764122e-003 7.500000e-001
         vertex 1.503477e-001 5.778593e-003 7.500000e-001
         vertex 1.503461e-001 5.863580e-003 7.500000e-001
      endloop
   endfacet
   facet normal 0.000000e+000 0.000000e+000 1.000000e+000
      outer loop
         vertex 1.503461e-001 5.863580e-003 7.500000e-001
         vertex 1.503477e-001 5.778593e-003 7.500000e-001
         vertex 1.503741e-001 5.786512e-003 7.500000e-001
      endloop
   endfacet
   facet normal 0.000000e+000 0.000000e+000 1.000000e+000
      outer loop
         vertex 1.503461e-001 5.863580e-003 7.500000e-001
         vertex 1.503741e-001 5.786512e-003 7.500000e-001
         vertex 1.503869e-001 5.792283e-003 7.500000e-001
      endloop
   endfacet
   facet normal 0.000000e+000 0.000000e+000 1.000000e+000
      outer loop
         vertex 9.070337e-003 1.372683e-002 7.500000e-001
         vertex 6.986511e-003 1.259504e-002 7.500000e-001
         vertex 9.429608e-003 1.680784e-003 7.500000e-001
      endloop
   endfacet
   facet normal 0.000000e+000 0.000000e+000 1.000000e+000
      outer loop
         vertex 9.429608e-003 1.680784e-003 7.500000e-001
         vertex 6.986511e-003 1.259504e-002 7.500000e-001
         vertex 4.884521e-003 1.122604e-002 7.500000e-001
      endloop
   endfacet
   facet normal 0.000000e+000 0.000000e+000 1.000000e+000
      outer loop
         vertex 9.429608e-003 1.680784e-003 7.500000e-001
         vertex 4.884521e-003 1.122604e-002 7.500000e-001
         vertex 6.667544e-003 2.120155e-003 7.500000e-001
      endloop
   endfacet
   facet normal 0.000000e+000 0.000000e+000 1.000000e+000
      outer loop
         vertex 6.667544e-003 2.120155e-003 7.500000e-001
         vertex 4.884521e-003 1.122604e-002 7.500000e-001
         vertex 3.364802e-003 1.007211e-002 7.500000e-001
      endloop
   endfacet
   facet normal 0.000000e+000 0.000000e+000 1.000000e+000
      outer loop
         vertex 6.667544e-003 2.120155e-003 7.500000e-001
         vertex 3.364802e-003 1.007211e-002 7.500000e-001
         vertex 4.671425e-003 2.594889e-003 7.500000e-001
      endloop
   endfacet
   facet normal 0.000000e+000 0.000000e+000 1.000000e+000
      outer loop
         vertex 1.504035e-001 5.813070e-003 7.500000e-001
         vertex 1.503461e-001 5.863580e-003 7.500000e-001
         vertex 1.504034e-001 5.810565e-003 7.500000e-001
      endloop
   endfacet
   facet normal 0.000000e+000 0.000000e+000 1.000000e+000
      outer loop
         vertex 1.504034e-001 5.810565e-003 7.500000e-001
         vertex 1.503461e-001 5.863580e-003 7.500000e-001
         vertex 1.504028e-001 5.807845e-003 7.500000e-001
      endloop
   endfacet
   facet normal 0.000000e+000 0.000000e+000 1.000000e+000
      outer loop
         vertex 1.504035e-001 5.813070e-003 7.500000e-001
         vertex 1.504033e-001 5.815647e-003 7.500000e-001
         vertex 1.503461e-001 5.863580e-003 7.500000e-001
      endloop
   endfacet
   facet normal 0.000000e+000 0.000000e+000 1.000000e+000
      outer loop
         vertex 1.503461e-001 5.863580e-003 7.500000e-001
         vertex 1.504033e-001 5.815647e-003 7.500000e-001
         vertex 1.504025e-001 5.818440e-003 7.500000e-001
      endloop
   endfacet
   facet normal 0.000000e+000 0.000000e+000 1.000000e+000
      outer loop
         vertex 1.503461e-001 5.863580e-003 7.500000e-001
         vertex 1.504025e-001 5.818440e-003 7.500000e-001
         vertex 1.503797e-001 5.843487e-003 7.500000e-001
      endloop
   endfacet
   facet normal 0.000000e+000 0.000000e+000 1.000000e+000
      outer loop
         vertex 1.503797e-001 5.843487e-003 7.500000e-001
         vertex 1.504025e-001 5.818440e-003 7.500000e-001
         vertex 1.504012e-001 5.821622e-003 7.500000e-001
      endloop
   endfacet
   facet normal 0.000000e+000 0.000000e+000 1.000000e+000
      outer loop
         vertex 1.503797e-001 5.843487e-003 7.500000e-001
         vertex 1.504012e-001 5.821622e-003 7.500000e-001
         vertex 1.503924e-001 5.832917e-003 7.500000e-001
      endloop
   endfacet
   facet normal 0.000000e+000 0.000000e+000 1.000000e+000
      outer loop
         vertex 1.503924e-001 5.832917e-003 7.500000e-001
         vertex 1.504012e-001 5.821622e-003 7.500000e-001
         vertex 1.503982e-001 5.826299e-003 7.500000e-001
      endloop
   endfacet
   facet normal 0.000000e+000 0.000000e+000 1.000000e+000
      outer loop
         vertex 3.574690e-002 1.009880e-004 7.500000e-001
         vertex 3.300789e-002 1.976999e-002 7.500000e-001
         vertex 2.757414e-002 2.800068e-004 7.500000e-001
      endloop
   endfacet
   facet normal 0.000000e+000 0.000000e+000 1.000000e+000
      outer loop
         vertex 2.757414e-002 2.800068e-004 7.500000e-001
         vertex 3.300789e-002 1.976999e-002 7.500000e-001
         vertex 2.895027e-002 1.921459e-002 7.500000e-001
      endloop
   endfacet
   facet normal 0.000000e+000 0.000000e+000 1.000000e+000
      outer loop
         vertex 2.757414e-002 2.800068e-004 7.500000e-001
         vertex 2.895027e-002 1.921459e-002 7.500000e-001
         vertex 2.477533e-002 1.845573e-002 7.500000e-001
      endloop
   endfacet
   facet normal 0.000000e+000 0.000000e+000 1.000000e+000
      outer loop
         vertex 6.007361e-002 2.101631e-002 7.500000e-001
         vertex 5.521459e-002 2.111083e-002 7.500000e-001
         vertex 5.512007e-002 1.222342e-004 7.500000e-001
      endloop
   endfacet
   facet normal 0.000000e+000 0.000000e+000 1.000000e+000
      outer loop
         vertex 5.512007e-002 1.222342e-004 7.500000e-001
         vertex 5.521459e-002 2.111083e-002 7.500000e-001
         vertex 5.074669e-002 2.104869e-002 7.500000e-001
      endloop
   endfacet
   facet normal 0.000000e+000 0.000000e+000 1.000000e+000
      outer loop
         vertex 5.512007e-002 1.222342e-004 7.500000e-001
         vertex 5.074669e-002 2.104869e-002 7.500000e-001
         vertex 4.201969e-002 4.826766e-005 7.500000e-001
      endloop
   endfacet
   facet normal 0.000000e+000 0.000000e+000 1.000000e+000
      outer loop
         vertex 4.201969e-002 4.826766e-005 7.500000e-001
         vertex 5.074669e-002 2.104869e-002 7.500000e-001
         vertex 4.508153e-002 2.075192e-002 7.500000e-001
      endloop
   endfacet
   facet normal 0.000000e+000 0.000000e+000 1.000000e+000
      outer loop
         vertex 4.201969e-002 4.826766e-005 7.500000e-001
         vertex 4.508153e-002 2.075192e-002 7.500000e-001
         vertex 3.574690e-002 1.009880e-004 7.500000e-001
      endloop
   endfacet
   facet normal 0.000000e+000 0.000000e+000 1.000000e+000
      outer loop
         vertex 3.574690e-002 1.009880e-004 7.500000e-001
         vertex 4.508153e-002 2.075192e-002 7.500000e-001
         vertex 3.782042e-002 2.023368e-002 7.500000e-001
      endloop
   endfacet
   facet normal 0.000000e+000 0.000000e+000 1.000000e+000
      outer loop
         vertex 3.574690e-002 1.009880e-004 7.500000e-001
         vertex 3.782042e-002 2.023368e-002 7.500000e-001
         vertex 3.300789e-002 1.976999e-002 7.500000e-001
      endloop
   endfacet
   facet normal 0.000000e+000 0.000000e+000 1.000000e+000
      outer loop
         vertex 1.503869e-001 5.792283e-003 7.500000e-001
         vertex 1.503935e-001 5.796456e-003 7.500000e-001
         vertex 1.503461e-001 5.863580e-003 7.500000e-001
      endloop
   endfacet
   facet normal 0.000000e+000 0.000000e+000 1.000000e+000
      outer loop
         vertex 1.503461e-001 5.863580e-003 7.500000e-001
         vertex 1.503935e-001 5.796456e-003 7.500000e-001
         vertex 1.503976e-001 5.799920e-003 7.500000e-001
      endloop
   endfacet
   facet normal 0.000000e+000 0.000000e+000 1.000000e+000
      outer loop
         vertex 1.503461e-001 5.863580e-003 7.500000e-001
         vertex 1.503976e-001 5.799920e-003 7.500000e-001
         vertex 1.504001e-001 5.802856e-003 7.500000e-001
      endloop
   endfacet
   facet normal 0.000000e+000 0.000000e+000 1.000000e+000
      outer loop
         vertex 1.504001e-001 5.802856e-003 7.500000e-001
         vertex 1.504017e-001 5.805450e-003 7.500000e-001
         vertex 1.503461e-001 5.863580e-003 7.500000e-001
      endloop
   endfacet
   facet normal 0.000000e+000 0.000000e+000 1.000000e+000
      outer loop
         vertex 1.503461e-001 5.863580e-003 7.500000e-001
         vertex 1.504017e-001 5.805450e-003 7.500000e-001
         vertex 1.504028e-001 5.807845e-003 7.500000e-001
      endloop
   endfacet
   facet normal 0.000000e+000 0.000000e+000 1.000000e+000
      outer loop
         vertex 3.364802e-003 1.007211e-002 7.500000e-001
         vertex 2.318738e-003 9.122164e-003 7.500000e-001
         vertex 4.671425e-003 2.594889e-003 7.500000e-001
      endloop
   endfacet
   facet normal 0.000000e+000 0.000000e+000 1.000000e+000
      outer loop
         vertex 4.671425e-003 2.594889e-003 7.500000e-001
         vertex 2.318738e-003 9.122164e-003 7.500000e-001
         vertex 1.464530e-003 8.125911e-003 7.500000e-001
      endloop
   endfacet
   facet normal 0.000000e+000 0.000000e+000 1.000000e+000
      outer loop
         vertex 4.671425e-003 2.594889e-003 7.500000e-001
         vertex 1.464530e-003 8.125911e-003 7.500000e-001
         vertex 3.180702e-003 3.109011e-003 7.500000e-001
      endloop
   endfacet
   facet normal 0.000000e+000 0.000000e+000 1.000000e+000
      outer loop
         vertex 3.180702e-003 3.109011e-003 7.500000e-001
         vertex 1.464530e-003 8.125911e-003 7.500000e-001
         vertex 8.549896e-004 7.205293e-003 7.500000e-001
      endloop
   endfacet
   facet normal 0.000000e+000 0.000000e+000 1.000000e+000
      outer loop
         vertex 3.180702e-003 3.109011e-003 7.500000e-001
         vertex 8.549896e-004 7.205293e-003 7.500000e-001
         vertex 5.768393e-004 6.629857e-003 7.500000e-001
      endloop
   endfacet
   facet normal 0.000000e+000 0.000000e+000 1.000000e+000
      outer loop
         vertex 9.023716e-004 4.639779e-003 7.500000e-001
         vertex 1.378040e-003 4.169548e-003 7.500000e-001
         vertex 4.067725e-004 5.697137e-003 7.500000e-001
      endloop
   endfacet
   facet normal 0.000000e+000 0.000000e+000 1.000000e+000
      outer loop
         vertex 4.067725e-004 5.697137e-003 7.500000e-001
         vertex 1.378040e-003 4.169548e-003 7.500000e-001
         vertex 4.088502e-004 5.950016e-003 7.500000e-001
      endloop
   endfacet
   facet normal 0.000000e+000 0.000000e+000 1.000000e+000
      outer loop
         vertex 5.768393e-004 6.629857e-003 7.500000e-001
         vertex 4.582684e-004 6.254646e-003 7.500000e-001
         vertex 3.180702e-003 3.109011e-003 7.500000e-001
      endloop
   endfacet
   facet normal 0.000000e+000 0.000000e+000 1.000000e+000
      outer loop
         vertex 3.180702e-003 3.109011e-003 7.500000e-001
         vertex 4.582684e-004 6.254646e-003 7.500000e-001
         vertex 4.088502e-004 5.950016e-003 7.500000e-001
      endloop
   endfacet
   facet normal 0.000000e+000 0.000000e+000 1.000000e+000
      outer loop
         vertex 3.180702e-003 3.109011e-003 7.500000e-001
         vertex 4.088502e-004 5.950016e-003 7.500000e-001
         vertex 2.091847e-003 3.655441e-003 7.500000e-001
      endloop
   endfacet
   facet normal 0.000000e+000 0.000000e+000 1.000000e+000
      outer loop
         vertex 2.091847e-003 3.655441e-003 7.500000e-001
         vertex 4.088502e-004 5.950016e-003 7.500000e-001
         vertex 1.378040e-003 4.169548e-003 7.500000e-001
      endloop
   endfacet
   facet normal 0.000000e+000 0.000000e+000 1.000000e+000
      outer loop
         vertex 9.023716e-004 4.639779e-003 7.500000e-001
         vertex 4.067725e-004 5.697137e-003 7.500000e-001
         vertex 6.491230e-004 4.983956e-003 7.500000e-001
      endloop
   endfacet
   facet normal 0.000000e+000 0.000000e+000 1.000000e+000
      outer loop
         vertex 6.491230e-004 4.983956e-003 7.500000e-001
         vertex 4.067725e-004 5.697137e-003 7.500000e-001
         vertex 4.394487e-004 5.477153e-003 7.500000e-001
      endloop
   endfacet
   facet normal 0.000000e+000 0.000000e+000 1.000000e+000
      outer loop
         vertex 6.491230e-004 4.983956e-003 7.500000e-001
         vertex 4.394487e-004 5.477153e-003 7.500000e-001
         vertex 5.110374e-004 5.253683e-003 7.500000e-001
      endloop
   endfacet
   facet normal 0.000000e+000 0.000000e+000 -1.000000e+000
      outer loop
         vertex 9.070337e-003 1.372683e-002 0.000000e+000
         vertex 1.135747e-002 1.475768e-002 0.000000e+000
         vertex 9.429608e-003 1.680784e-003 0.000000e+000
      endloop
   endfacet
   facet normal 0.000000e+000 0.000000e+000 -1.000000e+000
      outer loop
         vertex 1.502513e-001 5.764122e-003 0.000000e+000
         vertex 1.501909e-001 5.759458e-003 0.000000e+000
         vertex 1.499502e-001 6.000431e-003 0.000000e+000
      endloop
   endfacet
   facet normal 0.000000e+000 0.000000e+000 -1.000000e+000
      outer loop
         vertex 1.501909e-001 5.759458e-003 0.000000e+000
         vertex 1.501071e-001 5.755594e-003 0.000000e+000
         vertex 1.499502e-001 6.000431e-003 0.000000e+000
      endloop
   endfacet
   facet normal 0.000000e+000 0.000000e+000 -1.000000e+000
      outer loop
         vertex 1.499502e-001 6.000431e-003 0.000000e+000
         vertex 1.501071e-001 5.755594e-003 0.000000e+000
         vertex 1.495359e-001 5.759964e-003 0.000000e+000
      endloop
   endfacet
   facet normal 0.000000e+000 0.000000e+000 -1.000000e+000
      outer loop
         vertex 1.499502e-001 6.000431e-003 0.000000e+000
         vertex 1.495359e-001 5.759964e-003 0.000000e+000
         vertex 1.472747e-001 6.618264e-003 0.000000e+000
      endloop
   endfacet
   facet normal 0.000000e+000 0.000000e+000 -1.000000e+000
      outer loop
         vertex 1.472747e-001 6.618264e-003 0.000000e+000
         vertex 1.495359e-001 5.759964e-003 0.000000e+000
         vertex 1.483786e-001 5.816039e-003 0.000000e+000
      endloop
   endfacet
   facet normal 0.000000e+000 0.000000e+000 -1.000000e+000
      outer loop
         vertex 1.472747e-001 6.618264e-003 0.000000e+000
         vertex 1.483786e-001 5.816039e-003 0.000000e+000
         vertex 1.448917e-001 7.123477e-003 0.000000e+000
      endloop
   endfacet
   facet normal 0.000000e+000 0.000000e+000 -1.000000e+000
      outer loop
         vertex 1.448917e-001 7.123477e-003 0.000000e+000
         vertex 1.483786e-001 5.816039e-003 0.000000e+000
         vertex 1.443607e-001 6.084152e-003 0.000000e+000
      endloop
   endfacet
   facet normal 0.000000e+000 0.000000e+000 -1.000000e+000
      outer loop
         vertex 1.448917e-001 7.123477e-003 0.000000e+000
         vertex 1.443607e-001 6.084152e-003 0.000000e+000
         vertex 1.407362e-001 8.071895e-003 0.000000e+000
      endloop
   endfacet
   facet normal 0.000000e+000 0.000000e+000 -1.000000e+000
      outer loop
         vertex 1.407362e-001 8.071895e-003 0.000000e+000
         vertex 1.443607e-001 6.084152e-003 0.000000e+000
         vertex 1.401757e-001 6.277116e-003 0.000000e+000
      endloop
   endfacet
   facet normal 0.000000e+000 0.000000e+000 -1.000000e+000
      outer loop
         vertex 1.407362e-001 8.071895e-003 0.000000e+000
         vertex 1.401757e-001 6.277116e-003 0.000000e+000
         vertex 1.358759e-001 9.356953e-003 0.000000e+000
      endloop
   endfacet
   facet normal 0.000000e+000 0.000000e+000 -1.000000e+000
      outer loop
         vertex 1.358759e-001 9.356953e-003 0.000000e+000
         vertex 1.401757e-001 6.277116e-003 0.000000e+000
         vertex 1.369222e-001 6.283798e-003 0.000000e+000
      endloop
   endfacet
   facet normal 0.000000e+000 0.000000e+000 -1.000000e+000
      outer loop
         vertex 1.358759e-001 9.356953e-003 0.000000e+000
         vertex 1.369222e-001 6.283798e-003 0.000000e+000
         vertex 1.318156e-001 1.033169e-002 0.000000e+000
      endloop
   endfacet
   facet normal 0.000000e+000 0.000000e+000 -1.000000e+000
      outer loop
         vertex 1.318156e-001 1.033169e-002 0.000000e+000
         vertex 1.369222e-001 6.283798e-003 0.000000e+000
         vertex 1.290223e-001 6.158050e-003 0.000000e+000
      endloop
   endfacet
   facet normal 0.000000e+000 0.000000e+000 -1.000000e+000
      outer loop
         vertex 1.318156e-001 1.033169e-002 0.000000e+000
         vertex 1.290223e-001 6.158050e-003 0.000000e+000
         vertex 1.215391e-001 1.274151e-002 0.000000e+000
      endloop
   endfacet
   facet normal 0.000000e+000 0.000000e+000 -1.000000e+000
      outer loop
         vertex 1.215391e-001 1.274151e-002 0.000000e+000
         vertex 1.290223e-001 6.158050e-003 0.000000e+000
         vertex 1.230898e-001 5.904026e-003 0.000000e+000
      endloop
   endfacet
   facet normal 0.000000e+000 0.000000e+000 -1.000000e+000
      outer loop
         vertex 1.215391e-001 1.274151e-002 0.000000e+000
         vertex 1.230898e-001 5.904026e-003 0.000000e+000
         vertex 1.141538e-001 1.441072e-002 0.000000e+000
      endloop
   endfacet
   facet normal 0.000000e+000 0.000000e+000 -1.000000e+000
      outer loop
         vertex 1.141538e-001 1.441072e-002 0.000000e+000
         vertex 1.230898e-001 5.904026e-003 0.000000e+000
         vertex 1.160076e-001 5.411933e-003 0.000000e+000
      endloop
   endfacet
   facet normal 0.000000e+000 0.000000e+000 -1.000000e+000
      outer loop
         vertex 1.141538e-001 1.441072e-002 0.000000e+000
         vertex 1.160076e-001 5.411933e-003 0.000000e+000
         vertex 1.095800e-001 1.535727e-002 0.000000e+000
      endloop
   endfacet
   facet normal 0.000000e+000 0.000000e+000 -1.000000e+000
      outer loop
         vertex 1.095800e-001 1.535727e-002 0.000000e+000
         vertex 1.160076e-001 5.411933e-003 0.000000e+000
         vertex 1.074232e-001 4.642536e-003 0.000000e+000
      endloop
   endfacet
   facet normal 0.000000e+000 0.000000e+000 -1.000000e+000
      outer loop
         vertex 1.095800e-001 1.535727e-002 0.000000e+000
         vertex 1.074232e-001 4.642536e-003 0.000000e+000
         vertex 1.009961e-001 1.699667e-002 0.000000e+000
      endloop
   endfacet
   facet normal 0.000000e+000 0.000000e+000 -1.000000e+000
      outer loop
         vertex 1.009961e-001 1.699667e-002 0.000000e+000
         vertex 1.074232e-001 4.642536e-003 0.000000e+000
         vertex 9.716234e-002 3.511242e-003 0.000000e+000
      endloop
   endfacet
   facet normal 0.000000e+000 0.000000e+000 -1.000000e+000
      outer loop
         vertex 9.429608e-003 1.680784e-003 0.000000e+000
         vertex 1.135747e-002 1.475768e-002 0.000000e+000
         vertex 1.348716e-002 1.237753e-003 0.000000e+000
      endloop
   endfacet
   facet normal 0.000000e+000 0.000000e+000 -1.000000e+000
      outer loop
         vertex 1.503461e-001 5.863580e-003 0.000000e+000
         vertex 1.504033e-001 5.815647e-003 0.000000e+000
         vertex 1.504035e-001 5.813070e-003 0.000000e+000
      endloop
   endfacet
   facet normal 0.000000e+000 0.000000e+000 -1.000000e+000
      outer loop
         vertex 1.499502e-001 6.000431e-003 0.000000e+000
         vertex 1.503158e-001 5.878119e-003 0.000000e+000
         vertex 1.502513e-001 5.764122e-003 0.000000e+000
      endloop
   endfacet
   facet normal 0.000000e+000 0.000000e+000 -1.000000e+000
      outer loop
         vertex 1.502513e-001 5.764122e-003 0.000000e+000
         vertex 1.503158e-001 5.878119e-003 0.000000e+000
         vertex 1.503461e-001 5.863580e-003 0.000000e+000
      endloop
   endfacet
   facet normal 0.000000e+000 0.000000e+000 -1.000000e+000
      outer loop
         vertex 1.502513e-001 5.764122e-003 0.000000e+000
         vertex 1.503461e-001 5.863580e-003 0.000000e+000
         vertex 1.503477e-001 5.778593e-003 0.000000e+000
      endloop
   endfacet
   facet normal 0.000000e+000 0.000000e+000 -1.000000e+000
      outer loop
         vertex 1.503477e-001 5.778593e-003 0.000000e+000
         vertex 1.503461e-001 5.863580e-003 0.000000e+000
         vertex 1.503741e-001 5.786512e-003 0.000000e+000
      endloop
   endfacet
   facet normal 0.000000e+000 0.000000e+000 -1.000000e+000
      outer loop
         vertex 7.260440e-002 1.081285e-003 0.000000e+000
         vertex 8.102761e-002 1.991417e-002 0.000000e+000
         vertex 8.738156e-002 2.449357e-003 0.000000e+000
      endloop
   endfacet
   facet normal 0.000000e+000 0.000000e+000 -1.000000e+000
      outer loop
         vertex 8.738156e-002 2.449357e-003 0.000000e+000
         vertex 8.102761e-002 1.991417e-002 0.000000e+000
         vertex 8.704671e-002 1.920688e-002 0.000000e+000
      endloop
   endfacet
   facet normal 0.000000e+000 0.000000e+000 -1.000000e+000
      outer loop
         vertex 8.738156e-002 2.449357e-003 0.000000e+000
         vertex 8.704671e-002 1.920688e-002 0.000000e+000
         vertex 9.716234e-002 3.511242e-003 0.000000e+000
      endloop
   endfacet
   facet normal 0.000000e+000 0.000000e+000 -1.000000e+000
      outer loop
         vertex 9.716234e-002 3.511242e-003 0.000000e+000
         vertex 8.704671e-002 1.920688e-002 0.000000e+000
         vertex 9.363875e-002 1.824835e-002 0.000000e+000
      endloop
   endfacet
   facet normal 0.000000e+000 0.000000e+000 -1.000000e+000
      outer loop
         vertex 9.716234e-002 3.511242e-003 0.000000e+000
         vertex 9.363875e-002 1.824835e-002 0.000000e+000
         vertex 1.009961e-001 1.699667e-002 0.000000e+000
      endloop
   endfacet
   facet normal 0.000000e+000 0.000000e+000 -1.000000e+000
      outer loop
         vertex 1.504033e-001 5.815647e-003 0.000000e+000
         vertex 1.503461e-001 5.863580e-003 0.000000e+000
         vertex 1.504025e-001 5.818440e-003 0.000000e+000
      endloop
   endfacet
   facet normal 0.000000e+000 0.000000e+000 -1.000000e+000
      outer loop
         vertex 1.504025e-001 5.818440e-003 0.000000e+000
         vertex 1.503461e-001 5.863580e-003 0.000000e+000
         vertex 1.503797e-001 5.843487e-003 0.000000e+000
      endloop
   endfacet
   facet normal 0.000000e+000 0.000000e+000 -1.000000e+000
      outer loop
         vertex 1.504025e-001 5.818440e-003 0.000000e+000
         vertex 1.503797e-001 5.843487e-003 0.000000e+000
         vertex 1.504012e-001 5.821622e-003 0.000000e+000
      endloop
   endfacet
   facet normal 0.000000e+000 0.000000e+000 -1.000000e+000
      outer loop
         vertex 1.504012e-001 5.821622e-003 0.000000e+000
         vertex 1.503797e-001 5.843487e-003 0.000000e+000
         vertex 1.503924e-001 5.832917e-003 0.000000e+000
      endloop
   endfacet
   facet normal 0.000000e+000 0.000000e+000 -1.000000e+000
      outer loop
         vertex 1.504012e-001 5.821622e-003 0.000000e+000
         vertex 1.503924e-001 5.832917e-003 0.000000e+000
         vertex 1.503982e-001 5.826299e-003 0.000000e+000
      endloop
   endfacet
   facet normal 0.000000e+000 0.000000e+000 -1.000000e+000
      outer loop
         vertex 1.504035e-001 5.813070e-003 0.000000e+000
         vertex 1.504034e-001 5.810565e-003 0.000000e+000
         vertex 1.503461e-001 5.863580e-003 0.000000e+000
      endloop
   endfacet
   facet normal 0.000000e+000 0.000000e+000 -1.000000e+000
      outer loop
         vertex 1.503461e-001 5.863580e-003 0.000000e+000
         vertex 1.504034e-001 5.810565e-003 0.000000e+000
         vertex 1.504028e-001 5.807845e-003 0.000000e+000
      endloop
   endfacet
   facet normal 0.000000e+000 0.000000e+000 -1.000000e+000
      outer loop
         vertex 1.503976e-001 5.799920e-003 0.000000e+000
         vertex 1.503935e-001 5.796456e-003 0.000000e+000
         vertex 1.503461e-001 5.863580e-003 0.000000e+000
      endloop
   endfacet
   facet normal 0.000000e+000 0.000000e+000 -1.000000e+000
      outer loop
         vertex 1.503461e-001 5.863580e-003 0.000000e+000
         vertex 1.503935e-001 5.796456e-003 0.000000e+000
         vertex 1.503869e-001 5.792283e-003 0.000000e+000
      endloop
   endfacet
   facet normal 0.000000e+000 0.000000e+000 -1.000000e+000
      outer loop
         vertex 1.503461e-001 5.863580e-003 0.000000e+000
         vertex 1.503869e-001 5.792283e-003 0.000000e+000
         vertex 1.503741e-001 5.786512e-003 0.000000e+000
      endloop
   endfacet
   facet normal 0.000000e+000 0.000000e+000 -1.000000e+000
      outer loop
         vertex 2.757414e-002 2.800068e-004 0.000000e+000
         vertex 3.300789e-002 1.976999e-002 0.000000e+000
         vertex 3.574690e-002 1.009880e-004 0.000000e+000
      endloop
   endfacet
   facet normal 0.000000e+000 0.000000e+000 -1.000000e+000
      outer loop
         vertex 3.574690e-002 1.009880e-004 0.000000e+000
         vertex 3.300789e-002 1.976999e-002 0.000000e+000
         vertex 3.782042e-002 2.023368e-002 1.110223e-016
      endloop
   endfacet
   facet normal 0.000000e+000 0.000000e+000 -1.000000e+000
      outer loop
         vertex 3.574690e-002 1.009880e-004 0.000000e+000
         vertex 3.782042e-002 2.023368e-002 1.110223e-016
         vertex 4.201969e-002 4.826766e-005 0.000000e+000
      endloop
   endfacet
   facet normal 0.000000e+000 0.000000e+000 -1.000000e+000
      outer loop
         vertex 1.135747e-002 1.475768e-002 0.000000e+000
         vertex 1.393537e-002 1.571872e-002 0.000000e+000
         vertex 1.348716e-002 1.237753e-003 0.000000e+000
      endloop
   endfacet
   facet normal 0.000000e+000 0.000000e+000 -1.000000e+000
      outer loop
         vertex 1.348716e-002 1.237753e-003 0.000000e+000
         vertex 1.393537e-002 1.571872e-002 0.000000e+000
         vertex 1.687583e-002 1.662259e-002 0.000000e+000
      endloop
   endfacet
   facet normal 0.000000e+000 0.000000e+000 -1.000000e+000
      outer loop
         vertex 1.348716e-002 1.237753e-003 0.000000e+000
         vertex 1.687583e-002 1.662259e-002 0.000000e+000
         vertex 1.923976e-002 6.962041e-004 0.000000e+000
      endloop
   endfacet
   facet normal 0.000000e+000 0.000000e+000 -1.000000e+000
      outer loop
         vertex 1.923976e-002 6.962041e-004 0.000000e+000
         vertex 1.687583e-002 1.662259e-002 0.000000e+000
         vertex 2.024785e-002 1.748080e-002 0.000000e+000
      endloop
   endfacet
   facet normal 0.000000e+000 0.000000e+000 -1.000000e+000
      outer loop
         vertex 1.923976e-002 6.962041e-004 0.000000e+000
         vertex 2.024785e-002 1.748080e-002 0.000000e+000
         vertex 2.330784e-002 4.033963e-004 0.000000e+000
      endloop
   endfacet
   facet normal 0.000000e+000 0.000000e+000 -1.000000e+000
      outer loop
         vertex 2.330784e-002 4.033963e-004 0.000000e+000
         vertex 2.024785e-002 1.748080e-002 0.000000e+000
         vertex 2.477533e-002 1.845573e-002 0.000000e+000
      endloop
   endfacet
   facet normal 0.000000e+000 0.000000e+000 -1.000000e+000
      outer loop
         vertex 2.330784e-002 4.033963e-004 0.000000e+000
         vertex 2.477533e-002 1.845573e-002 0.000000e+000
         vertex 2.757414e-002 2.800068e-004 0.000000e+000
      endloop
   endfacet
   facet normal 0.000000e+000 0.000000e+000 -1.000000e+000
      outer loop
         vertex 2.757414e-002 2.800068e-004 0.000000e+000
         vertex 2.477533e-002 1.845573e-002 0.000000e+000
         vertex 2.895027e-002 1.921459e-002 0.000000e+000
      endloop
   endfacet
   facet normal 0.000000e+000 0.000000e+000 -1.000000e+000
      outer loop
         vertex 2.757414e-002 2.800068e-004 0.000000e+000
         vertex 2.895027e-002 1.921459e-002 0.000000e+000
         vertex 3.300789e-002 1.976999e-002 0.000000e+000
      endloop
   endfacet
   facet normal 0.000000e+000 0.000000e+000 -1.000000e+000
      outer loop
         vertex 3.782042e-002 2.023368e-002 1.110223e-016
         vertex 4.508153e-002 2.075192e-002 0.000000e+000
         vertex 4.201969e-002 4.826766e-005 0.000000e+000
      endloop
   endfacet
   facet normal 0.000000e+000 0.000000e+000 -1.000000e+000
      outer loop
         vertex 4.201969e-002 4.826766e-005 0.000000e+000
         vertex 4.508153e-002 2.075192e-002 0.000000e+000
         vertex 5.074669e-002 2.104869e-002 0.000000e+000
      endloop
   endfacet
   facet normal 0.000000e+000 0.000000e+000 -1.000000e+000
      outer loop
         vertex 4.201969e-002 4.826766e-005 0.000000e+000
         vertex 5.074669e-002 2.104869e-002 0.000000e+000
         vertex 5.512007e-002 1.222342e-004 0.000000e+000
      endloop
   endfacet
   facet normal 0.000000e+000 0.000000e+000 -1.000000e+000
      outer loop
         vertex 5.512007e-002 1.222342e-004 0.000000e+000
         vertex 5.074669e-002 2.104869e-002 0.000000e+000
         vertex 5.521459e-002 2.111083e-002 0.000000e+000
      endloop
   endfacet
   facet normal 0.000000e+000 0.000000e+000 -1.000000e+000
      outer loop
         vertex 5.512007e-002 1.222342e-004 0.000000e+000
         vertex 5.521459e-002 2.111083e-002 0.000000e+000
         vertex 6.037106e-002 2.217973e-004 0.000000e+000
      endloop
   endfacet
   facet normal 0.000000e+000 0.000000e+000 -1.000000e+000
      outer loop
         vertex 6.037106e-002 2.217973e-004 0.000000e+000
         vertex 5.521459e-002 2.111083e-002 0.000000e+000
         vertex 6.007361e-002 2.101631e-002 0.000000e+000
      endloop
   endfacet
   facet normal 0.000000e+000 0.000000e+000 -1.000000e+000
      outer loop
         vertex 6.037106e-002 2.217973e-004 0.000000e+000
         vertex 6.007361e-002 2.101631e-002 0.000000e+000
         vertex 6.551496e-002 4.963623e-004 0.000000e+000
      endloop
   endfacet
   facet normal 0.000000e+000 0.000000e+000 -1.000000e+000
      outer loop
         vertex 6.551496e-002 4.963623e-004 0.000000e+000
         vertex 6.007361e-002 2.101631e-002 0.000000e+000
         vertex 6.906759e-002 2.074333e-002 0.000000e+000
      endloop
   endfacet
   facet normal 0.000000e+000 0.000000e+000 -1.000000e+000
      outer loop
         vertex 6.551496e-002 4.963623e-004 0.000000e+000
         vertex 6.906759e-002 2.074333e-002 0.000000e+000
         vertex 7.260440e-002 1.081285e-003 0.000000e+000
      endloop
   endfacet
   facet normal 0.000000e+000 0.000000e+000 -1.000000e+000
      outer loop
         vertex 7.260440e-002 1.081285e-003 0.000000e+000
         vertex 6.906759e-002 2.074333e-002 0.000000e+000
         vertex 7.501490e-002 2.042902e-002 0.000000e+000
      endloop
   endfacet
   facet normal 0.000000e+000 0.000000e+000 -1.000000e+000
      outer loop
         vertex 7.260440e-002 1.081285e-003 0.000000e+000
         vertex 7.501490e-002 2.042902e-002 0.000000e+000
         vertex 8.102761e-002 1.991417e-002 0.000000e+000
      endloop
   endfacet
   facet normal 0.000000e+000 0.000000e+000 -1.000000e+000
      outer loop
         vertex 1.504028e-001 5.807845e-003 0.000000e+000
         vertex 1.504017e-001 5.805450e-003 0.000000e+000
         vertex 1.503461e-001 5.863580e-003 0.000000e+000
      endloop
   endfacet
   facet normal 0.000000e+000 0.000000e+000 -1.000000e+000
      outer loop
         vertex 1.503461e-001 5.863580e-003 0.000000e+000
         vertex 1.504017e-001 5.805450e-003 0.000000e+000
         vertex 1.504001e-001 5.802856e-003 0.000000e+000
      endloop
   endfacet
   facet normal 0.000000e+000 0.000000e+000 -1.000000e+000
      outer loop
         vertex 1.503461e-001 5.863580e-003 0.000000e+000
         vertex 1.504001e-001 5.802856e-003 0.000000e+000
         vertex 1.503976e-001 5.799920e-003 0.000000e+000
      endloop
   endfacet
   facet normal 0.000000e+000 0.000000e+000 -1.000000e+000
      outer loop
         vertex 1.464530e-003 8.125911e-003 0.000000e+000
         vertex 4.671425e-003 2.594889e-003 0.000000e+000
         vertex 3.180702e-003 3.109011e-003 0.000000e+000
      endloop
   endfacet
   facet normal 0.000000e+000 0.000000e+000 -1.000000e+000
      outer loop
         vertex 1.464530e-003 8.125911e-003 0.000000e+000
         vertex 2.318738e-003 9.122164e-003 -1.110223e-016
         vertex 4.671425e-003 2.594889e-003 0.000000e+000
      endloop
   endfacet
   facet normal 0.000000e+000 0.000000e+000 -1.000000e+000
      outer loop
         vertex 4.671425e-003 2.594889e-003 0.000000e+000
         vertex 2.318738e-003 9.122164e-003 -1.110223e-016
         vertex 3.364802e-003 1.007211e-002 0.000000e+000
      endloop
   endfacet
   facet normal 0.000000e+000 0.000000e+000 -1.000000e+000
      outer loop
         vertex 4.671425e-003 2.594889e-003 0.000000e+000
         vertex 3.364802e-003 1.007211e-002 0.000000e+000
         vertex 6.667544e-003 2.120155e-003 0.000000e+000
      endloop
   endfacet
   facet normal 0.000000e+000 0.000000e+000 -1.000000e+000
      outer loop
         vertex 6.667544e-003 2.120155e-003 0.000000e+000
         vertex 3.364802e-003 1.007211e-002 0.000000e+000
         vertex 4.884521e-003 1.122604e-002 0.000000e+000
      endloop
   endfacet
   facet normal 0.000000e+000 0.000000e+000 -1.000000e+000
      outer loop
         vertex 6.667544e-003 2.120155e-003 0.000000e+000
         vertex 4.884521e-003 1.122604e-002 0.000000e+000
         vertex 9.429608e-003 1.680784e-003 0.000000e+000
      endloop
   endfacet
   facet normal 0.000000e+000 0.000000e+000 -1.000000e+000
      outer loop
         vertex 9.429608e-003 1.680784e-003 0.000000e+000
         vertex 4.884521e-003 1.122604e-002 0.000000e+000
         vertex 6.986511e-003 1.259504e-002 0.000000e+000
      endloop
   endfacet
   facet normal 0.000000e+000 0.000000e+000 -1.000000e+000
      outer loop
         vertex 9.429608e-003 1.680784e-003 0.000000e+000
         vertex 6.986511e-003 1.259504e-002 0.000000e+000
         vertex 9.070337e-003 1.372683e-002 0.000000e+000
      endloop
   endfacet
   facet normal 0.000000e+000 0.000000e+000 -1.000000e+000
      outer loop
         vertex 4.582684e-004 6.254646e-003 0.000000e+000
         vertex 5.768393e-004 6.629857e-003 0.000000e+000
         vertex 3.180702e-003 3.109011e-003 0.000000e+000
      endloop
   endfacet
   facet normal 0.000000e+000 0.000000e+000 -1.000000e+000
      outer loop
         vertex 3.180702e-003 3.109011e-003 0.000000e+000
         vertex 5.768393e-004 6.629857e-003 0.000000e+000
         vertex 8.549896e-004 7.205293e-003 0.000000e+000
      endloop
   endfacet
   facet normal 0.000000e+000 0.000000e+000 -1.000000e+000
      outer loop
         vertex 3.180702e-003 3.109011e-003 0.000000e+000
         vertex 8.549896e-004 7.205293e-003 0.000000e+000
         vertex 1.464530e-003 8.125911e-003 0.000000e+000
      endloop
   endfacet
   facet normal 0.000000e+000 0.000000e+000 -1.000000e+000
      outer loop
         vertex 4.067725e-004 5.697137e-003 0.000000e+000
         vertex 4.088502e-004 5.950016e-003 0.000000e+000
         vertex 1.378040e-003 4.169548e-003 0.000000e+000
      endloop
   endfacet
   facet normal 0.000000e+000 0.000000e+000 -1.000000e+000
      outer loop
         vertex 4.582684e-004 6.254646e-003 0.000000e+000
         vertex 3.180702e-003 3.109011e-003 0.000000e+000
         vertex 4.088502e-004 5.950016e-003 0.000000e+000
      endloop
   endfacet
   facet normal 0.000000e+000 0.000000e+000 -1.000000e+000
      outer loop
         vertex 4.088502e-004 5.950016e-003 0.000000e+000
         vertex 3.180702e-003 3.109011e-003 0.000000e+000
         vertex 2.091847e-003 3.655441e-003 0.000000e+000
      endloop
   endfacet
   facet normal 0.000000e+000 0.000000e+000 -1.000000e+000
      outer loop
         vertex 4.088502e-004 5.950016e-003 0.000000e+000
         vertex 2.091847e-003 3.655441e-003 0.000000e+000
         vertex 1.378040e-003 4.169548e-003 0.000000e+000
      endloop
   endfacet
   facet normal 0.000000e+000 0.000000e+000 -1.000000e+000
      outer loop
         vertex 1.378040e-003 4.169548e-003 0.000000e+000
         vertex 9.023716e-004 4.639779e-003 0.000000e+000
         vertex 4.067725e-004 5.697137e-003 0.000000e+000
      endloop
   endfacet
   facet normal 0.000000e+000 0.000000e+000 -1.000000e+000
      outer loop
         vertex 4.067725e-004 5.697137e-003 0.000000e+000
         vertex 9.023716e-004 4.639779e-003 0.000000e+000
         vertex 6.491230e-004 4.983956e-003 0.000000e+000
      endloop
   endfacet
   facet normal 0.000000e+000 0.000000e+000 -1.000000e+000
      outer loop
         vertex 4.067725e-004 5.697137e-003 0.000000e+000
         vertex 6.491230e-004 4.983956e-003 0.000000e+000
         vertex 4.394487e-004 5.477153e-003 0.000000e+000
      endloop
   endfacet
   facet normal 0.000000e+000 0.000000e+000 -1.000000e+000
      outer loop
         vertex 4.394487e-004 5.477153e-003 0.000000e+000
         vertex 6.491230e-004 4.983956e-003 0.000000e+000
         vertex 5.110374e-004 5.253683e-003 0.000000e+000
      endloop
   endfacet
endsolid